G04 #@! TF.GenerationSoftware,KiCad,Pcbnew,5.1.5-52549c5~84~ubuntu18.04.1*
G04 #@! TF.CreationDate,2020-01-23T13:37:20+00:00*
G04 #@! TF.ProjectId,HW-lab-power,48572d6c-6162-42d7-906f-7765722e6b69,rev?*
G04 #@! TF.SameCoordinates,Original*
G04 #@! TF.FileFunction,Legend,Top*
G04 #@! TF.FilePolarity,Positive*
%FSLAX46Y46*%
G04 Gerber Fmt 4.6, Leading zero omitted, Abs format (unit mm)*
G04 Created by KiCad (PCBNEW 5.1.5-52549c5~84~ubuntu18.04.1) date 2020-01-23 13:37:20*
%MOMM*%
%LPD*%
G04 APERTURE LIST*
%ADD10C,0.300000*%
%ADD11C,0.150000*%
%ADD12C,0.900000*%
%ADD13C,0.120000*%
G04 APERTURE END LIST*
D10*
X106954761Y-94304761D02*
X106954761Y-95923809D01*
X107050000Y-96114285D01*
X107145238Y-96209523D01*
X107335714Y-96304761D01*
X107716666Y-96304761D01*
X107907142Y-96209523D01*
X108002380Y-96114285D01*
X108097619Y-95923809D01*
X108097619Y-94304761D01*
X108954761Y-96209523D02*
X109240476Y-96304761D01*
X109716666Y-96304761D01*
X109907142Y-96209523D01*
X110002380Y-96114285D01*
X110097619Y-95923809D01*
X110097619Y-95733333D01*
X110002380Y-95542857D01*
X109907142Y-95447619D01*
X109716666Y-95352380D01*
X109335714Y-95257142D01*
X109145238Y-95161904D01*
X109050000Y-95066666D01*
X108954761Y-94876190D01*
X108954761Y-94685714D01*
X109050000Y-94495238D01*
X109145238Y-94400000D01*
X109335714Y-94304761D01*
X109811904Y-94304761D01*
X110097619Y-94400000D01*
X111621428Y-95257142D02*
X111907142Y-95352380D01*
X112002380Y-95447619D01*
X112097619Y-95638095D01*
X112097619Y-95923809D01*
X112002380Y-96114285D01*
X111907142Y-96209523D01*
X111716666Y-96304761D01*
X110954761Y-96304761D01*
X110954761Y-94304761D01*
X111621428Y-94304761D01*
X111811904Y-94400000D01*
X111907142Y-94495238D01*
X112002380Y-94685714D01*
X112002380Y-94876190D01*
X111907142Y-95066666D01*
X111811904Y-95161904D01*
X111621428Y-95257142D01*
X110954761Y-95257142D01*
X115621428Y-96114285D02*
X115526190Y-96209523D01*
X115240476Y-96304761D01*
X115050000Y-96304761D01*
X114764285Y-96209523D01*
X114573809Y-96019047D01*
X114478571Y-95828571D01*
X114383333Y-95447619D01*
X114383333Y-95161904D01*
X114478571Y-94780952D01*
X114573809Y-94590476D01*
X114764285Y-94400000D01*
X115050000Y-94304761D01*
X115240476Y-94304761D01*
X115526190Y-94400000D01*
X115621428Y-94495238D01*
X116478571Y-96304761D02*
X116478571Y-94304761D01*
X117335714Y-96304761D02*
X117335714Y-95257142D01*
X117240476Y-95066666D01*
X117050000Y-94971428D01*
X116764285Y-94971428D01*
X116573809Y-95066666D01*
X116478571Y-95161904D01*
X119145238Y-96304761D02*
X119145238Y-95257142D01*
X119050000Y-95066666D01*
X118859523Y-94971428D01*
X118478571Y-94971428D01*
X118288095Y-95066666D01*
X119145238Y-96209523D02*
X118954761Y-96304761D01*
X118478571Y-96304761D01*
X118288095Y-96209523D01*
X118192857Y-96019047D01*
X118192857Y-95828571D01*
X118288095Y-95638095D01*
X118478571Y-95542857D01*
X118954761Y-95542857D01*
X119145238Y-95447619D01*
X120097619Y-96304761D02*
X120097619Y-94971428D01*
X120097619Y-95352380D02*
X120192857Y-95161904D01*
X120288095Y-95066666D01*
X120478571Y-94971428D01*
X120669047Y-94971428D01*
X122192857Y-94971428D02*
X122192857Y-96590476D01*
X122097619Y-96780952D01*
X122002380Y-96876190D01*
X121811904Y-96971428D01*
X121526190Y-96971428D01*
X121335714Y-96876190D01*
X122192857Y-96209523D02*
X122002380Y-96304761D01*
X121621428Y-96304761D01*
X121430952Y-96209523D01*
X121335714Y-96114285D01*
X121240476Y-95923809D01*
X121240476Y-95352380D01*
X121335714Y-95161904D01*
X121430952Y-95066666D01*
X121621428Y-94971428D01*
X122002380Y-94971428D01*
X122192857Y-95066666D01*
X123907142Y-96209523D02*
X123716666Y-96304761D01*
X123335714Y-96304761D01*
X123145238Y-96209523D01*
X123050000Y-96019047D01*
X123050000Y-95257142D01*
X123145238Y-95066666D01*
X123335714Y-94971428D01*
X123716666Y-94971428D01*
X123907142Y-95066666D01*
X124002380Y-95257142D01*
X124002380Y-95447619D01*
X123050000Y-95638095D01*
X124859523Y-96304761D02*
X124859523Y-94971428D01*
X124859523Y-95352380D02*
X124954761Y-95161904D01*
X125050000Y-95066666D01*
X125240476Y-94971428D01*
X125430952Y-94971428D01*
D11*
X151738095Y-94500000D02*
X151642857Y-94452380D01*
X151500000Y-94452380D01*
X151357142Y-94500000D01*
X151261904Y-94595238D01*
X151214285Y-94690476D01*
X151166666Y-94880952D01*
X151166666Y-95023809D01*
X151214285Y-95214285D01*
X151261904Y-95309523D01*
X151357142Y-95404761D01*
X151500000Y-95452380D01*
X151595238Y-95452380D01*
X151738095Y-95404761D01*
X151785714Y-95357142D01*
X151785714Y-95023809D01*
X151595238Y-95023809D01*
X152214285Y-95452380D02*
X152214285Y-94452380D01*
X152785714Y-95452380D01*
X152785714Y-94452380D01*
X153261904Y-95452380D02*
X153261904Y-94452380D01*
X153500000Y-94452380D01*
X153642857Y-94500000D01*
X153738095Y-94595238D01*
X153785714Y-94690476D01*
X153833333Y-94880952D01*
X153833333Y-95023809D01*
X153785714Y-95214285D01*
X153738095Y-95309523D01*
X153642857Y-95404761D01*
X153500000Y-95452380D01*
X153261904Y-95452380D01*
X143809523Y-94452380D02*
X144428571Y-94452380D01*
X144095238Y-94833333D01*
X144238095Y-94833333D01*
X144333333Y-94880952D01*
X144380952Y-94928571D01*
X144428571Y-95023809D01*
X144428571Y-95261904D01*
X144380952Y-95357142D01*
X144333333Y-95404761D01*
X144238095Y-95452380D01*
X143952380Y-95452380D01*
X143857142Y-95404761D01*
X143809523Y-95357142D01*
X144761904Y-94785714D02*
X145000000Y-95452380D01*
X145238095Y-94785714D01*
X145523809Y-94452380D02*
X146142857Y-94452380D01*
X145809523Y-94833333D01*
X145952380Y-94833333D01*
X146047619Y-94880952D01*
X146095238Y-94928571D01*
X146142857Y-95023809D01*
X146142857Y-95261904D01*
X146095238Y-95357142D01*
X146047619Y-95404761D01*
X145952380Y-95452380D01*
X145666666Y-95452380D01*
X145571428Y-95404761D01*
X145523809Y-95357142D01*
X137357142Y-94452380D02*
X136880952Y-94452380D01*
X136833333Y-94928571D01*
X136880952Y-94880952D01*
X136976190Y-94833333D01*
X137214285Y-94833333D01*
X137309523Y-94880952D01*
X137357142Y-94928571D01*
X137404761Y-95023809D01*
X137404761Y-95261904D01*
X137357142Y-95357142D01*
X137309523Y-95404761D01*
X137214285Y-95452380D01*
X136976190Y-95452380D01*
X136880952Y-95404761D01*
X136833333Y-95357142D01*
X137738095Y-94785714D02*
X137976190Y-95452380D01*
X138214285Y-94785714D01*
X129428571Y-95452380D02*
X128857142Y-95452380D01*
X129142857Y-95452380D02*
X129142857Y-94452380D01*
X129047619Y-94595238D01*
X128952380Y-94690476D01*
X128857142Y-94738095D01*
X129809523Y-94547619D02*
X129857142Y-94500000D01*
X129952380Y-94452380D01*
X130190476Y-94452380D01*
X130285714Y-94500000D01*
X130333333Y-94547619D01*
X130380952Y-94642857D01*
X130380952Y-94738095D01*
X130333333Y-94880952D01*
X129761904Y-95452380D01*
X130380952Y-95452380D01*
X130714285Y-94785714D02*
X130952380Y-95452380D01*
X131190476Y-94785714D01*
D12*
X173690476Y-57500000D02*
X173214285Y-57261904D01*
X172500000Y-57261904D01*
X171785714Y-57500000D01*
X171309523Y-57976190D01*
X171071428Y-58452380D01*
X170833333Y-59404761D01*
X170833333Y-60119047D01*
X171071428Y-61071428D01*
X171309523Y-61547619D01*
X171785714Y-62023809D01*
X172500000Y-62261904D01*
X172976190Y-62261904D01*
X173690476Y-62023809D01*
X173928571Y-61785714D01*
X173928571Y-60119047D01*
X172976190Y-60119047D01*
X176071428Y-62261904D02*
X176071428Y-57261904D01*
X178928571Y-62261904D01*
X178928571Y-57261904D01*
X181309523Y-62261904D02*
X181309523Y-57261904D01*
X182500000Y-57261904D01*
X183214285Y-57500000D01*
X183690476Y-57976190D01*
X183928571Y-58452380D01*
X184166666Y-59404761D01*
X184166666Y-60119047D01*
X183928571Y-61071428D01*
X183690476Y-61547619D01*
X183214285Y-62023809D01*
X182500000Y-62261904D01*
X181309523Y-62261904D01*
X151309523Y-57261904D02*
X154404761Y-57261904D01*
X152738095Y-59166666D01*
X153452380Y-59166666D01*
X153928571Y-59404761D01*
X154166666Y-59642857D01*
X154404761Y-60119047D01*
X154404761Y-61309523D01*
X154166666Y-61785714D01*
X153928571Y-62023809D01*
X153452380Y-62261904D01*
X152023809Y-62261904D01*
X151547619Y-62023809D01*
X151309523Y-61785714D01*
X155833333Y-57261904D02*
X157500000Y-62261904D01*
X159166666Y-57261904D01*
X160357142Y-57261904D02*
X163452380Y-57261904D01*
X161785714Y-59166666D01*
X162500000Y-59166666D01*
X162976190Y-59404761D01*
X163214285Y-59642857D01*
X163452380Y-60119047D01*
X163452380Y-61309523D01*
X163214285Y-61785714D01*
X162976190Y-62023809D01*
X162500000Y-62261904D01*
X161071428Y-62261904D01*
X160595238Y-62023809D01*
X160357142Y-61785714D01*
X136547619Y-57261904D02*
X134166666Y-57261904D01*
X133928571Y-59642857D01*
X134166666Y-59404761D01*
X134642857Y-59166666D01*
X135833333Y-59166666D01*
X136309523Y-59404761D01*
X136547619Y-59642857D01*
X136785714Y-60119047D01*
X136785714Y-61309523D01*
X136547619Y-61785714D01*
X136309523Y-62023809D01*
X135833333Y-62261904D01*
X134642857Y-62261904D01*
X134166666Y-62023809D01*
X133928571Y-61785714D01*
X138214285Y-57261904D02*
X139880952Y-62261904D01*
X141547619Y-57261904D01*
X114404761Y-62261904D02*
X111547619Y-62261904D01*
X112976190Y-62261904D02*
X112976190Y-57261904D01*
X112500000Y-57976190D01*
X112023809Y-58452380D01*
X111547619Y-58690476D01*
X116309523Y-57738095D02*
X116547619Y-57500000D01*
X117023809Y-57261904D01*
X118214285Y-57261904D01*
X118690476Y-57500000D01*
X118928571Y-57738095D01*
X119166666Y-58214285D01*
X119166666Y-58690476D01*
X118928571Y-59404761D01*
X116071428Y-62261904D01*
X119166666Y-62261904D01*
X120595238Y-57261904D02*
X122261904Y-62261904D01*
X123928571Y-57261904D01*
D13*
X178791667Y-84610000D02*
X175875000Y-84610000D01*
X178791667Y-84970000D02*
X178791667Y-84610000D01*
X181708333Y-84970000D02*
X178791667Y-84970000D01*
X181708333Y-84610000D02*
X181708333Y-84970000D01*
X184625000Y-84610001D02*
X181708333Y-84610000D01*
X184625000Y-91890000D02*
X184625000Y-84610001D01*
X175875000Y-91889999D02*
X184625000Y-91890000D01*
X175875000Y-84610000D02*
X175875000Y-91889999D01*
X109370000Y-86400000D02*
X122770000Y-86400000D01*
X109370000Y-92400000D02*
X114320000Y-92400000D01*
X109370000Y-92400000D02*
X109370000Y-89800000D01*
X122770000Y-92400000D02*
X122770000Y-89800000D01*
X122770000Y-92400000D02*
X117820000Y-92400000D01*
X167662779Y-71990000D02*
X167337221Y-71990000D01*
X167662779Y-73010000D02*
X167337221Y-73010000D01*
X147662779Y-71990000D02*
X147337221Y-71990000D01*
X147662779Y-73010000D02*
X147337221Y-73010000D01*
X127662779Y-71990000D02*
X127337221Y-71990000D01*
X127662779Y-73010000D02*
X127337221Y-73010000D01*
X169185000Y-69040000D02*
X166500000Y-69040000D01*
X169185000Y-70960000D02*
X169185000Y-69040000D01*
X166500000Y-70960000D02*
X169185000Y-70960000D01*
X149185000Y-69040000D02*
X146500000Y-69040000D01*
X149185000Y-70960000D02*
X149185000Y-69040000D01*
X146500000Y-70960000D02*
X149185000Y-70960000D01*
X129185000Y-69040000D02*
X126500000Y-69040000D01*
X129185000Y-70960000D02*
X129185000Y-69040000D01*
X126500000Y-70960000D02*
X129185000Y-70960000D01*
D11*
X166642857Y-96714761D02*
X166785714Y-96762380D01*
X167023809Y-96762380D01*
X167119047Y-96714761D01*
X167166666Y-96667142D01*
X167214285Y-96571904D01*
X167214285Y-96476666D01*
X167166666Y-96381428D01*
X167119047Y-96333809D01*
X167023809Y-96286190D01*
X166833333Y-96238571D01*
X166738095Y-96190952D01*
X166690476Y-96143333D01*
X166642857Y-96048095D01*
X166642857Y-95952857D01*
X166690476Y-95857619D01*
X166738095Y-95810000D01*
X166833333Y-95762380D01*
X167071428Y-95762380D01*
X167214285Y-95810000D01*
X167547619Y-95762380D02*
X167785714Y-96762380D01*
X167976190Y-96048095D01*
X168166666Y-96762380D01*
X168404761Y-95762380D01*
M02*
