G04 #@! TF.GenerationSoftware,KiCad,Pcbnew,5.1.5-52549c5~84~ubuntu18.04.1*
G04 #@! TF.CreationDate,2020-02-10T11:43:48+00:00*
G04 #@! TF.ProjectId,HW-lab-power,48572d6c-6162-42d7-906f-7765722e6b69,rev?*
G04 #@! TF.SameCoordinates,Original*
G04 #@! TF.FileFunction,Copper,L1,Top*
G04 #@! TF.FilePolarity,Positive*
%FSLAX46Y46*%
G04 Gerber Fmt 4.6, Leading zero omitted, Abs format (unit mm)*
G04 Created by KiCad (PCBNEW 5.1.5-52549c5~84~ubuntu18.04.1) date 2020-02-10 11:43:48*
%MOMM*%
%LPD*%
G04 APERTURE LIST*
%ADD10C,12.000000*%
%ADD11O,2.000000X1.200000*%
%ADD12O,2.900000X1.900000*%
%ADD13O,1.900000X2.900000*%
%ADD14C,1.300000*%
%ADD15R,1.300000X1.300000*%
%ADD16C,0.100000*%
%ADD17C,4.000500*%
%ADD18C,5.999480*%
%ADD19R,5.999480X5.999480*%
%ADD20C,0.250000*%
%ADD21C,1.000000*%
%ADD22C,0.254000*%
G04 APERTURE END LIST*
D10*
X177500000Y-70000000D03*
X157500000Y-70000000D03*
X137500000Y-70000000D03*
X117500000Y-70000000D03*
D11*
X177375000Y-90790000D03*
X183125000Y-90790000D03*
X177375000Y-88250000D03*
X183125000Y-88250000D03*
X177375000Y-85710000D03*
X183125000Y-85710000D03*
D12*
X116070000Y-92280000D03*
D13*
X109500000Y-88100000D03*
X122640000Y-88100000D03*
D14*
X112570000Y-87500000D03*
X115070000Y-87500000D03*
X117070000Y-87500000D03*
D15*
X119570000Y-87500000D03*
G04 #@! TA.AperFunction,SMDPad,CuDef*
D16*
G36*
X166952691Y-72026053D02*
G01*
X166973926Y-72029203D01*
X166994750Y-72034419D01*
X167014962Y-72041651D01*
X167034368Y-72050830D01*
X167052781Y-72061866D01*
X167070024Y-72074654D01*
X167085930Y-72089070D01*
X167100346Y-72104976D01*
X167113134Y-72122219D01*
X167124170Y-72140632D01*
X167133349Y-72160038D01*
X167140581Y-72180250D01*
X167145797Y-72201074D01*
X167148947Y-72222309D01*
X167150000Y-72243750D01*
X167150000Y-72756250D01*
X167148947Y-72777691D01*
X167145797Y-72798926D01*
X167140581Y-72819750D01*
X167133349Y-72839962D01*
X167124170Y-72859368D01*
X167113134Y-72877781D01*
X167100346Y-72895024D01*
X167085930Y-72910930D01*
X167070024Y-72925346D01*
X167052781Y-72938134D01*
X167034368Y-72949170D01*
X167014962Y-72958349D01*
X166994750Y-72965581D01*
X166973926Y-72970797D01*
X166952691Y-72973947D01*
X166931250Y-72975000D01*
X166493750Y-72975000D01*
X166472309Y-72973947D01*
X166451074Y-72970797D01*
X166430250Y-72965581D01*
X166410038Y-72958349D01*
X166390632Y-72949170D01*
X166372219Y-72938134D01*
X166354976Y-72925346D01*
X166339070Y-72910930D01*
X166324654Y-72895024D01*
X166311866Y-72877781D01*
X166300830Y-72859368D01*
X166291651Y-72839962D01*
X166284419Y-72819750D01*
X166279203Y-72798926D01*
X166276053Y-72777691D01*
X166275000Y-72756250D01*
X166275000Y-72243750D01*
X166276053Y-72222309D01*
X166279203Y-72201074D01*
X166284419Y-72180250D01*
X166291651Y-72160038D01*
X166300830Y-72140632D01*
X166311866Y-72122219D01*
X166324654Y-72104976D01*
X166339070Y-72089070D01*
X166354976Y-72074654D01*
X166372219Y-72061866D01*
X166390632Y-72050830D01*
X166410038Y-72041651D01*
X166430250Y-72034419D01*
X166451074Y-72029203D01*
X166472309Y-72026053D01*
X166493750Y-72025000D01*
X166931250Y-72025000D01*
X166952691Y-72026053D01*
G37*
G04 #@! TD.AperFunction*
G04 #@! TA.AperFunction,SMDPad,CuDef*
G36*
X168527691Y-72026053D02*
G01*
X168548926Y-72029203D01*
X168569750Y-72034419D01*
X168589962Y-72041651D01*
X168609368Y-72050830D01*
X168627781Y-72061866D01*
X168645024Y-72074654D01*
X168660930Y-72089070D01*
X168675346Y-72104976D01*
X168688134Y-72122219D01*
X168699170Y-72140632D01*
X168708349Y-72160038D01*
X168715581Y-72180250D01*
X168720797Y-72201074D01*
X168723947Y-72222309D01*
X168725000Y-72243750D01*
X168725000Y-72756250D01*
X168723947Y-72777691D01*
X168720797Y-72798926D01*
X168715581Y-72819750D01*
X168708349Y-72839962D01*
X168699170Y-72859368D01*
X168688134Y-72877781D01*
X168675346Y-72895024D01*
X168660930Y-72910930D01*
X168645024Y-72925346D01*
X168627781Y-72938134D01*
X168609368Y-72949170D01*
X168589962Y-72958349D01*
X168569750Y-72965581D01*
X168548926Y-72970797D01*
X168527691Y-72973947D01*
X168506250Y-72975000D01*
X168068750Y-72975000D01*
X168047309Y-72973947D01*
X168026074Y-72970797D01*
X168005250Y-72965581D01*
X167985038Y-72958349D01*
X167965632Y-72949170D01*
X167947219Y-72938134D01*
X167929976Y-72925346D01*
X167914070Y-72910930D01*
X167899654Y-72895024D01*
X167886866Y-72877781D01*
X167875830Y-72859368D01*
X167866651Y-72839962D01*
X167859419Y-72819750D01*
X167854203Y-72798926D01*
X167851053Y-72777691D01*
X167850000Y-72756250D01*
X167850000Y-72243750D01*
X167851053Y-72222309D01*
X167854203Y-72201074D01*
X167859419Y-72180250D01*
X167866651Y-72160038D01*
X167875830Y-72140632D01*
X167886866Y-72122219D01*
X167899654Y-72104976D01*
X167914070Y-72089070D01*
X167929976Y-72074654D01*
X167947219Y-72061866D01*
X167965632Y-72050830D01*
X167985038Y-72041651D01*
X168005250Y-72034419D01*
X168026074Y-72029203D01*
X168047309Y-72026053D01*
X168068750Y-72025000D01*
X168506250Y-72025000D01*
X168527691Y-72026053D01*
G37*
G04 #@! TD.AperFunction*
G04 #@! TA.AperFunction,SMDPad,CuDef*
G36*
X146952691Y-72026053D02*
G01*
X146973926Y-72029203D01*
X146994750Y-72034419D01*
X147014962Y-72041651D01*
X147034368Y-72050830D01*
X147052781Y-72061866D01*
X147070024Y-72074654D01*
X147085930Y-72089070D01*
X147100346Y-72104976D01*
X147113134Y-72122219D01*
X147124170Y-72140632D01*
X147133349Y-72160038D01*
X147140581Y-72180250D01*
X147145797Y-72201074D01*
X147148947Y-72222309D01*
X147150000Y-72243750D01*
X147150000Y-72756250D01*
X147148947Y-72777691D01*
X147145797Y-72798926D01*
X147140581Y-72819750D01*
X147133349Y-72839962D01*
X147124170Y-72859368D01*
X147113134Y-72877781D01*
X147100346Y-72895024D01*
X147085930Y-72910930D01*
X147070024Y-72925346D01*
X147052781Y-72938134D01*
X147034368Y-72949170D01*
X147014962Y-72958349D01*
X146994750Y-72965581D01*
X146973926Y-72970797D01*
X146952691Y-72973947D01*
X146931250Y-72975000D01*
X146493750Y-72975000D01*
X146472309Y-72973947D01*
X146451074Y-72970797D01*
X146430250Y-72965581D01*
X146410038Y-72958349D01*
X146390632Y-72949170D01*
X146372219Y-72938134D01*
X146354976Y-72925346D01*
X146339070Y-72910930D01*
X146324654Y-72895024D01*
X146311866Y-72877781D01*
X146300830Y-72859368D01*
X146291651Y-72839962D01*
X146284419Y-72819750D01*
X146279203Y-72798926D01*
X146276053Y-72777691D01*
X146275000Y-72756250D01*
X146275000Y-72243750D01*
X146276053Y-72222309D01*
X146279203Y-72201074D01*
X146284419Y-72180250D01*
X146291651Y-72160038D01*
X146300830Y-72140632D01*
X146311866Y-72122219D01*
X146324654Y-72104976D01*
X146339070Y-72089070D01*
X146354976Y-72074654D01*
X146372219Y-72061866D01*
X146390632Y-72050830D01*
X146410038Y-72041651D01*
X146430250Y-72034419D01*
X146451074Y-72029203D01*
X146472309Y-72026053D01*
X146493750Y-72025000D01*
X146931250Y-72025000D01*
X146952691Y-72026053D01*
G37*
G04 #@! TD.AperFunction*
G04 #@! TA.AperFunction,SMDPad,CuDef*
G36*
X148527691Y-72026053D02*
G01*
X148548926Y-72029203D01*
X148569750Y-72034419D01*
X148589962Y-72041651D01*
X148609368Y-72050830D01*
X148627781Y-72061866D01*
X148645024Y-72074654D01*
X148660930Y-72089070D01*
X148675346Y-72104976D01*
X148688134Y-72122219D01*
X148699170Y-72140632D01*
X148708349Y-72160038D01*
X148715581Y-72180250D01*
X148720797Y-72201074D01*
X148723947Y-72222309D01*
X148725000Y-72243750D01*
X148725000Y-72756250D01*
X148723947Y-72777691D01*
X148720797Y-72798926D01*
X148715581Y-72819750D01*
X148708349Y-72839962D01*
X148699170Y-72859368D01*
X148688134Y-72877781D01*
X148675346Y-72895024D01*
X148660930Y-72910930D01*
X148645024Y-72925346D01*
X148627781Y-72938134D01*
X148609368Y-72949170D01*
X148589962Y-72958349D01*
X148569750Y-72965581D01*
X148548926Y-72970797D01*
X148527691Y-72973947D01*
X148506250Y-72975000D01*
X148068750Y-72975000D01*
X148047309Y-72973947D01*
X148026074Y-72970797D01*
X148005250Y-72965581D01*
X147985038Y-72958349D01*
X147965632Y-72949170D01*
X147947219Y-72938134D01*
X147929976Y-72925346D01*
X147914070Y-72910930D01*
X147899654Y-72895024D01*
X147886866Y-72877781D01*
X147875830Y-72859368D01*
X147866651Y-72839962D01*
X147859419Y-72819750D01*
X147854203Y-72798926D01*
X147851053Y-72777691D01*
X147850000Y-72756250D01*
X147850000Y-72243750D01*
X147851053Y-72222309D01*
X147854203Y-72201074D01*
X147859419Y-72180250D01*
X147866651Y-72160038D01*
X147875830Y-72140632D01*
X147886866Y-72122219D01*
X147899654Y-72104976D01*
X147914070Y-72089070D01*
X147929976Y-72074654D01*
X147947219Y-72061866D01*
X147965632Y-72050830D01*
X147985038Y-72041651D01*
X148005250Y-72034419D01*
X148026074Y-72029203D01*
X148047309Y-72026053D01*
X148068750Y-72025000D01*
X148506250Y-72025000D01*
X148527691Y-72026053D01*
G37*
G04 #@! TD.AperFunction*
G04 #@! TA.AperFunction,SMDPad,CuDef*
G36*
X126952691Y-72026053D02*
G01*
X126973926Y-72029203D01*
X126994750Y-72034419D01*
X127014962Y-72041651D01*
X127034368Y-72050830D01*
X127052781Y-72061866D01*
X127070024Y-72074654D01*
X127085930Y-72089070D01*
X127100346Y-72104976D01*
X127113134Y-72122219D01*
X127124170Y-72140632D01*
X127133349Y-72160038D01*
X127140581Y-72180250D01*
X127145797Y-72201074D01*
X127148947Y-72222309D01*
X127150000Y-72243750D01*
X127150000Y-72756250D01*
X127148947Y-72777691D01*
X127145797Y-72798926D01*
X127140581Y-72819750D01*
X127133349Y-72839962D01*
X127124170Y-72859368D01*
X127113134Y-72877781D01*
X127100346Y-72895024D01*
X127085930Y-72910930D01*
X127070024Y-72925346D01*
X127052781Y-72938134D01*
X127034368Y-72949170D01*
X127014962Y-72958349D01*
X126994750Y-72965581D01*
X126973926Y-72970797D01*
X126952691Y-72973947D01*
X126931250Y-72975000D01*
X126493750Y-72975000D01*
X126472309Y-72973947D01*
X126451074Y-72970797D01*
X126430250Y-72965581D01*
X126410038Y-72958349D01*
X126390632Y-72949170D01*
X126372219Y-72938134D01*
X126354976Y-72925346D01*
X126339070Y-72910930D01*
X126324654Y-72895024D01*
X126311866Y-72877781D01*
X126300830Y-72859368D01*
X126291651Y-72839962D01*
X126284419Y-72819750D01*
X126279203Y-72798926D01*
X126276053Y-72777691D01*
X126275000Y-72756250D01*
X126275000Y-72243750D01*
X126276053Y-72222309D01*
X126279203Y-72201074D01*
X126284419Y-72180250D01*
X126291651Y-72160038D01*
X126300830Y-72140632D01*
X126311866Y-72122219D01*
X126324654Y-72104976D01*
X126339070Y-72089070D01*
X126354976Y-72074654D01*
X126372219Y-72061866D01*
X126390632Y-72050830D01*
X126410038Y-72041651D01*
X126430250Y-72034419D01*
X126451074Y-72029203D01*
X126472309Y-72026053D01*
X126493750Y-72025000D01*
X126931250Y-72025000D01*
X126952691Y-72026053D01*
G37*
G04 #@! TD.AperFunction*
G04 #@! TA.AperFunction,SMDPad,CuDef*
G36*
X128527691Y-72026053D02*
G01*
X128548926Y-72029203D01*
X128569750Y-72034419D01*
X128589962Y-72041651D01*
X128609368Y-72050830D01*
X128627781Y-72061866D01*
X128645024Y-72074654D01*
X128660930Y-72089070D01*
X128675346Y-72104976D01*
X128688134Y-72122219D01*
X128699170Y-72140632D01*
X128708349Y-72160038D01*
X128715581Y-72180250D01*
X128720797Y-72201074D01*
X128723947Y-72222309D01*
X128725000Y-72243750D01*
X128725000Y-72756250D01*
X128723947Y-72777691D01*
X128720797Y-72798926D01*
X128715581Y-72819750D01*
X128708349Y-72839962D01*
X128699170Y-72859368D01*
X128688134Y-72877781D01*
X128675346Y-72895024D01*
X128660930Y-72910930D01*
X128645024Y-72925346D01*
X128627781Y-72938134D01*
X128609368Y-72949170D01*
X128589962Y-72958349D01*
X128569750Y-72965581D01*
X128548926Y-72970797D01*
X128527691Y-72973947D01*
X128506250Y-72975000D01*
X128068750Y-72975000D01*
X128047309Y-72973947D01*
X128026074Y-72970797D01*
X128005250Y-72965581D01*
X127985038Y-72958349D01*
X127965632Y-72949170D01*
X127947219Y-72938134D01*
X127929976Y-72925346D01*
X127914070Y-72910930D01*
X127899654Y-72895024D01*
X127886866Y-72877781D01*
X127875830Y-72859368D01*
X127866651Y-72839962D01*
X127859419Y-72819750D01*
X127854203Y-72798926D01*
X127851053Y-72777691D01*
X127850000Y-72756250D01*
X127850000Y-72243750D01*
X127851053Y-72222309D01*
X127854203Y-72201074D01*
X127859419Y-72180250D01*
X127866651Y-72160038D01*
X127875830Y-72140632D01*
X127886866Y-72122219D01*
X127899654Y-72104976D01*
X127914070Y-72089070D01*
X127929976Y-72074654D01*
X127947219Y-72061866D01*
X127965632Y-72050830D01*
X127985038Y-72041651D01*
X128005250Y-72034419D01*
X128026074Y-72029203D01*
X128047309Y-72026053D01*
X128068750Y-72025000D01*
X128506250Y-72025000D01*
X128527691Y-72026053D01*
G37*
G04 #@! TD.AperFunction*
D17*
X167500000Y-92500000D03*
D18*
X152740000Y-90000000D03*
X145120000Y-90000000D03*
X137500000Y-90000000D03*
D19*
X129880000Y-90000000D03*
G04 #@! TA.AperFunction,SMDPad,CuDef*
D16*
G36*
X166830142Y-69301174D02*
G01*
X166853803Y-69304684D01*
X166877007Y-69310496D01*
X166899529Y-69318554D01*
X166921153Y-69328782D01*
X166941670Y-69341079D01*
X166960883Y-69355329D01*
X166978607Y-69371393D01*
X166994671Y-69389117D01*
X167008921Y-69408330D01*
X167021218Y-69428847D01*
X167031446Y-69450471D01*
X167039504Y-69472993D01*
X167045316Y-69496197D01*
X167048826Y-69519858D01*
X167050000Y-69543750D01*
X167050000Y-70456250D01*
X167048826Y-70480142D01*
X167045316Y-70503803D01*
X167039504Y-70527007D01*
X167031446Y-70549529D01*
X167021218Y-70571153D01*
X167008921Y-70591670D01*
X166994671Y-70610883D01*
X166978607Y-70628607D01*
X166960883Y-70644671D01*
X166941670Y-70658921D01*
X166921153Y-70671218D01*
X166899529Y-70681446D01*
X166877007Y-70689504D01*
X166853803Y-70695316D01*
X166830142Y-70698826D01*
X166806250Y-70700000D01*
X166318750Y-70700000D01*
X166294858Y-70698826D01*
X166271197Y-70695316D01*
X166247993Y-70689504D01*
X166225471Y-70681446D01*
X166203847Y-70671218D01*
X166183330Y-70658921D01*
X166164117Y-70644671D01*
X166146393Y-70628607D01*
X166130329Y-70610883D01*
X166116079Y-70591670D01*
X166103782Y-70571153D01*
X166093554Y-70549529D01*
X166085496Y-70527007D01*
X166079684Y-70503803D01*
X166076174Y-70480142D01*
X166075000Y-70456250D01*
X166075000Y-69543750D01*
X166076174Y-69519858D01*
X166079684Y-69496197D01*
X166085496Y-69472993D01*
X166093554Y-69450471D01*
X166103782Y-69428847D01*
X166116079Y-69408330D01*
X166130329Y-69389117D01*
X166146393Y-69371393D01*
X166164117Y-69355329D01*
X166183330Y-69341079D01*
X166203847Y-69328782D01*
X166225471Y-69318554D01*
X166247993Y-69310496D01*
X166271197Y-69304684D01*
X166294858Y-69301174D01*
X166318750Y-69300000D01*
X166806250Y-69300000D01*
X166830142Y-69301174D01*
G37*
G04 #@! TD.AperFunction*
G04 #@! TA.AperFunction,SMDPad,CuDef*
G36*
X168705142Y-69301174D02*
G01*
X168728803Y-69304684D01*
X168752007Y-69310496D01*
X168774529Y-69318554D01*
X168796153Y-69328782D01*
X168816670Y-69341079D01*
X168835883Y-69355329D01*
X168853607Y-69371393D01*
X168869671Y-69389117D01*
X168883921Y-69408330D01*
X168896218Y-69428847D01*
X168906446Y-69450471D01*
X168914504Y-69472993D01*
X168920316Y-69496197D01*
X168923826Y-69519858D01*
X168925000Y-69543750D01*
X168925000Y-70456250D01*
X168923826Y-70480142D01*
X168920316Y-70503803D01*
X168914504Y-70527007D01*
X168906446Y-70549529D01*
X168896218Y-70571153D01*
X168883921Y-70591670D01*
X168869671Y-70610883D01*
X168853607Y-70628607D01*
X168835883Y-70644671D01*
X168816670Y-70658921D01*
X168796153Y-70671218D01*
X168774529Y-70681446D01*
X168752007Y-70689504D01*
X168728803Y-70695316D01*
X168705142Y-70698826D01*
X168681250Y-70700000D01*
X168193750Y-70700000D01*
X168169858Y-70698826D01*
X168146197Y-70695316D01*
X168122993Y-70689504D01*
X168100471Y-70681446D01*
X168078847Y-70671218D01*
X168058330Y-70658921D01*
X168039117Y-70644671D01*
X168021393Y-70628607D01*
X168005329Y-70610883D01*
X167991079Y-70591670D01*
X167978782Y-70571153D01*
X167968554Y-70549529D01*
X167960496Y-70527007D01*
X167954684Y-70503803D01*
X167951174Y-70480142D01*
X167950000Y-70456250D01*
X167950000Y-69543750D01*
X167951174Y-69519858D01*
X167954684Y-69496197D01*
X167960496Y-69472993D01*
X167968554Y-69450471D01*
X167978782Y-69428847D01*
X167991079Y-69408330D01*
X168005329Y-69389117D01*
X168021393Y-69371393D01*
X168039117Y-69355329D01*
X168058330Y-69341079D01*
X168078847Y-69328782D01*
X168100471Y-69318554D01*
X168122993Y-69310496D01*
X168146197Y-69304684D01*
X168169858Y-69301174D01*
X168193750Y-69300000D01*
X168681250Y-69300000D01*
X168705142Y-69301174D01*
G37*
G04 #@! TD.AperFunction*
G04 #@! TA.AperFunction,SMDPad,CuDef*
G36*
X146830142Y-69301174D02*
G01*
X146853803Y-69304684D01*
X146877007Y-69310496D01*
X146899529Y-69318554D01*
X146921153Y-69328782D01*
X146941670Y-69341079D01*
X146960883Y-69355329D01*
X146978607Y-69371393D01*
X146994671Y-69389117D01*
X147008921Y-69408330D01*
X147021218Y-69428847D01*
X147031446Y-69450471D01*
X147039504Y-69472993D01*
X147045316Y-69496197D01*
X147048826Y-69519858D01*
X147050000Y-69543750D01*
X147050000Y-70456250D01*
X147048826Y-70480142D01*
X147045316Y-70503803D01*
X147039504Y-70527007D01*
X147031446Y-70549529D01*
X147021218Y-70571153D01*
X147008921Y-70591670D01*
X146994671Y-70610883D01*
X146978607Y-70628607D01*
X146960883Y-70644671D01*
X146941670Y-70658921D01*
X146921153Y-70671218D01*
X146899529Y-70681446D01*
X146877007Y-70689504D01*
X146853803Y-70695316D01*
X146830142Y-70698826D01*
X146806250Y-70700000D01*
X146318750Y-70700000D01*
X146294858Y-70698826D01*
X146271197Y-70695316D01*
X146247993Y-70689504D01*
X146225471Y-70681446D01*
X146203847Y-70671218D01*
X146183330Y-70658921D01*
X146164117Y-70644671D01*
X146146393Y-70628607D01*
X146130329Y-70610883D01*
X146116079Y-70591670D01*
X146103782Y-70571153D01*
X146093554Y-70549529D01*
X146085496Y-70527007D01*
X146079684Y-70503803D01*
X146076174Y-70480142D01*
X146075000Y-70456250D01*
X146075000Y-69543750D01*
X146076174Y-69519858D01*
X146079684Y-69496197D01*
X146085496Y-69472993D01*
X146093554Y-69450471D01*
X146103782Y-69428847D01*
X146116079Y-69408330D01*
X146130329Y-69389117D01*
X146146393Y-69371393D01*
X146164117Y-69355329D01*
X146183330Y-69341079D01*
X146203847Y-69328782D01*
X146225471Y-69318554D01*
X146247993Y-69310496D01*
X146271197Y-69304684D01*
X146294858Y-69301174D01*
X146318750Y-69300000D01*
X146806250Y-69300000D01*
X146830142Y-69301174D01*
G37*
G04 #@! TD.AperFunction*
G04 #@! TA.AperFunction,SMDPad,CuDef*
G36*
X148705142Y-69301174D02*
G01*
X148728803Y-69304684D01*
X148752007Y-69310496D01*
X148774529Y-69318554D01*
X148796153Y-69328782D01*
X148816670Y-69341079D01*
X148835883Y-69355329D01*
X148853607Y-69371393D01*
X148869671Y-69389117D01*
X148883921Y-69408330D01*
X148896218Y-69428847D01*
X148906446Y-69450471D01*
X148914504Y-69472993D01*
X148920316Y-69496197D01*
X148923826Y-69519858D01*
X148925000Y-69543750D01*
X148925000Y-70456250D01*
X148923826Y-70480142D01*
X148920316Y-70503803D01*
X148914504Y-70527007D01*
X148906446Y-70549529D01*
X148896218Y-70571153D01*
X148883921Y-70591670D01*
X148869671Y-70610883D01*
X148853607Y-70628607D01*
X148835883Y-70644671D01*
X148816670Y-70658921D01*
X148796153Y-70671218D01*
X148774529Y-70681446D01*
X148752007Y-70689504D01*
X148728803Y-70695316D01*
X148705142Y-70698826D01*
X148681250Y-70700000D01*
X148193750Y-70700000D01*
X148169858Y-70698826D01*
X148146197Y-70695316D01*
X148122993Y-70689504D01*
X148100471Y-70681446D01*
X148078847Y-70671218D01*
X148058330Y-70658921D01*
X148039117Y-70644671D01*
X148021393Y-70628607D01*
X148005329Y-70610883D01*
X147991079Y-70591670D01*
X147978782Y-70571153D01*
X147968554Y-70549529D01*
X147960496Y-70527007D01*
X147954684Y-70503803D01*
X147951174Y-70480142D01*
X147950000Y-70456250D01*
X147950000Y-69543750D01*
X147951174Y-69519858D01*
X147954684Y-69496197D01*
X147960496Y-69472993D01*
X147968554Y-69450471D01*
X147978782Y-69428847D01*
X147991079Y-69408330D01*
X148005329Y-69389117D01*
X148021393Y-69371393D01*
X148039117Y-69355329D01*
X148058330Y-69341079D01*
X148078847Y-69328782D01*
X148100471Y-69318554D01*
X148122993Y-69310496D01*
X148146197Y-69304684D01*
X148169858Y-69301174D01*
X148193750Y-69300000D01*
X148681250Y-69300000D01*
X148705142Y-69301174D01*
G37*
G04 #@! TD.AperFunction*
G04 #@! TA.AperFunction,SMDPad,CuDef*
G36*
X126830142Y-69301174D02*
G01*
X126853803Y-69304684D01*
X126877007Y-69310496D01*
X126899529Y-69318554D01*
X126921153Y-69328782D01*
X126941670Y-69341079D01*
X126960883Y-69355329D01*
X126978607Y-69371393D01*
X126994671Y-69389117D01*
X127008921Y-69408330D01*
X127021218Y-69428847D01*
X127031446Y-69450471D01*
X127039504Y-69472993D01*
X127045316Y-69496197D01*
X127048826Y-69519858D01*
X127050000Y-69543750D01*
X127050000Y-70456250D01*
X127048826Y-70480142D01*
X127045316Y-70503803D01*
X127039504Y-70527007D01*
X127031446Y-70549529D01*
X127021218Y-70571153D01*
X127008921Y-70591670D01*
X126994671Y-70610883D01*
X126978607Y-70628607D01*
X126960883Y-70644671D01*
X126941670Y-70658921D01*
X126921153Y-70671218D01*
X126899529Y-70681446D01*
X126877007Y-70689504D01*
X126853803Y-70695316D01*
X126830142Y-70698826D01*
X126806250Y-70700000D01*
X126318750Y-70700000D01*
X126294858Y-70698826D01*
X126271197Y-70695316D01*
X126247993Y-70689504D01*
X126225471Y-70681446D01*
X126203847Y-70671218D01*
X126183330Y-70658921D01*
X126164117Y-70644671D01*
X126146393Y-70628607D01*
X126130329Y-70610883D01*
X126116079Y-70591670D01*
X126103782Y-70571153D01*
X126093554Y-70549529D01*
X126085496Y-70527007D01*
X126079684Y-70503803D01*
X126076174Y-70480142D01*
X126075000Y-70456250D01*
X126075000Y-69543750D01*
X126076174Y-69519858D01*
X126079684Y-69496197D01*
X126085496Y-69472993D01*
X126093554Y-69450471D01*
X126103782Y-69428847D01*
X126116079Y-69408330D01*
X126130329Y-69389117D01*
X126146393Y-69371393D01*
X126164117Y-69355329D01*
X126183330Y-69341079D01*
X126203847Y-69328782D01*
X126225471Y-69318554D01*
X126247993Y-69310496D01*
X126271197Y-69304684D01*
X126294858Y-69301174D01*
X126318750Y-69300000D01*
X126806250Y-69300000D01*
X126830142Y-69301174D01*
G37*
G04 #@! TD.AperFunction*
G04 #@! TA.AperFunction,SMDPad,CuDef*
G36*
X128705142Y-69301174D02*
G01*
X128728803Y-69304684D01*
X128752007Y-69310496D01*
X128774529Y-69318554D01*
X128796153Y-69328782D01*
X128816670Y-69341079D01*
X128835883Y-69355329D01*
X128853607Y-69371393D01*
X128869671Y-69389117D01*
X128883921Y-69408330D01*
X128896218Y-69428847D01*
X128906446Y-69450471D01*
X128914504Y-69472993D01*
X128920316Y-69496197D01*
X128923826Y-69519858D01*
X128925000Y-69543750D01*
X128925000Y-70456250D01*
X128923826Y-70480142D01*
X128920316Y-70503803D01*
X128914504Y-70527007D01*
X128906446Y-70549529D01*
X128896218Y-70571153D01*
X128883921Y-70591670D01*
X128869671Y-70610883D01*
X128853607Y-70628607D01*
X128835883Y-70644671D01*
X128816670Y-70658921D01*
X128796153Y-70671218D01*
X128774529Y-70681446D01*
X128752007Y-70689504D01*
X128728803Y-70695316D01*
X128705142Y-70698826D01*
X128681250Y-70700000D01*
X128193750Y-70700000D01*
X128169858Y-70698826D01*
X128146197Y-70695316D01*
X128122993Y-70689504D01*
X128100471Y-70681446D01*
X128078847Y-70671218D01*
X128058330Y-70658921D01*
X128039117Y-70644671D01*
X128021393Y-70628607D01*
X128005329Y-70610883D01*
X127991079Y-70591670D01*
X127978782Y-70571153D01*
X127968554Y-70549529D01*
X127960496Y-70527007D01*
X127954684Y-70503803D01*
X127951174Y-70480142D01*
X127950000Y-70456250D01*
X127950000Y-69543750D01*
X127951174Y-69519858D01*
X127954684Y-69496197D01*
X127960496Y-69472993D01*
X127968554Y-69450471D01*
X127978782Y-69428847D01*
X127991079Y-69408330D01*
X128005329Y-69389117D01*
X128021393Y-69371393D01*
X128039117Y-69355329D01*
X128058330Y-69341079D01*
X128078847Y-69328782D01*
X128100471Y-69318554D01*
X128122993Y-69310496D01*
X128146197Y-69304684D01*
X128169858Y-69301174D01*
X128193750Y-69300000D01*
X128681250Y-69300000D01*
X128705142Y-69301174D01*
G37*
G04 #@! TD.AperFunction*
D20*
X128287500Y-70150000D02*
X128437500Y-70000000D01*
X128287500Y-72500000D02*
X128287500Y-70150000D01*
X148287500Y-70150000D02*
X148437500Y-70000000D01*
X148287500Y-72500000D02*
X148287500Y-70150000D01*
X168287500Y-70150000D02*
X168437500Y-70000000D01*
X168287500Y-72500000D02*
X168287500Y-70150000D01*
D21*
X116070000Y-90470000D02*
X116070000Y-92280000D01*
X116000000Y-90400000D02*
X116070000Y-90470000D01*
X109500000Y-88100000D02*
X111800000Y-90400000D01*
X111800000Y-90400000D02*
X116000000Y-90400000D01*
X120340000Y-90400000D02*
X116000000Y-90400000D01*
X122640000Y-88100000D02*
X120340000Y-90400000D01*
X115070000Y-87500000D02*
X117070000Y-87500000D01*
D20*
X126562500Y-70000000D02*
X117500000Y-70000000D01*
X137500000Y-70000000D02*
X146562500Y-70000000D01*
X157500000Y-70000000D02*
X166562500Y-70000000D01*
D22*
G36*
X185768083Y-55731173D02*
G01*
X186511891Y-55934656D01*
X187207905Y-56266638D01*
X187834130Y-56716626D01*
X188370777Y-57270403D01*
X188800871Y-57910451D01*
X189110829Y-58616553D01*
X189292065Y-59371457D01*
X189340001Y-60024220D01*
X189340001Y-97373000D01*
X105660000Y-97373000D01*
X105660000Y-87522136D01*
X107915000Y-87522136D01*
X107915000Y-88677863D01*
X107937934Y-88910713D01*
X108028566Y-89209487D01*
X108175744Y-89484838D01*
X108373813Y-89726187D01*
X108615161Y-89924256D01*
X108890512Y-90071434D01*
X109189286Y-90162066D01*
X109273000Y-90170311D01*
X109273000Y-92300000D01*
X109275440Y-92324776D01*
X109282667Y-92348601D01*
X109294403Y-92370557D01*
X109310197Y-92389803D01*
X109329443Y-92405597D01*
X109351399Y-92417333D01*
X109375224Y-92424560D01*
X109400000Y-92427000D01*
X113991809Y-92427000D01*
X114007934Y-92590714D01*
X114098566Y-92889488D01*
X114245744Y-93164839D01*
X114443813Y-93406187D01*
X114685161Y-93604256D01*
X114960512Y-93751434D01*
X115259286Y-93842066D01*
X115492136Y-93865000D01*
X116647864Y-93865000D01*
X116880714Y-93842066D01*
X117179488Y-93751434D01*
X117454839Y-93604256D01*
X117696187Y-93406187D01*
X117894256Y-93164839D01*
X118041434Y-92889488D01*
X118132066Y-92590714D01*
X118148191Y-92427000D01*
X122700000Y-92427000D01*
X122724776Y-92424560D01*
X122748601Y-92417333D01*
X122770557Y-92405597D01*
X122789803Y-92389803D01*
X122805597Y-92370557D01*
X122817333Y-92348601D01*
X122824560Y-92324776D01*
X122827000Y-92300000D01*
X122827000Y-90174251D01*
X122950714Y-90162066D01*
X123249488Y-90071434D01*
X123524839Y-89924256D01*
X123766187Y-89726187D01*
X123964256Y-89484839D01*
X124111434Y-89209488D01*
X124202066Y-88910714D01*
X124225000Y-88677864D01*
X124225000Y-87522136D01*
X124202066Y-87289286D01*
X124114392Y-87000260D01*
X126242188Y-87000260D01*
X126242188Y-92999740D01*
X126254448Y-93124222D01*
X126290758Y-93243920D01*
X126349723Y-93354234D01*
X126429075Y-93450925D01*
X126525766Y-93530277D01*
X126636080Y-93589242D01*
X126755778Y-93625552D01*
X126880260Y-93637812D01*
X132879740Y-93637812D01*
X133004222Y-93625552D01*
X133123920Y-93589242D01*
X133234234Y-93530277D01*
X133330925Y-93450925D01*
X133410277Y-93354234D01*
X133469242Y-93243920D01*
X133505552Y-93124222D01*
X133517812Y-92999740D01*
X133517812Y-89642009D01*
X133865260Y-89642009D01*
X133865260Y-90357991D01*
X134004941Y-91060215D01*
X134278935Y-91721695D01*
X134676713Y-92317012D01*
X135182988Y-92823287D01*
X135778305Y-93221065D01*
X136439785Y-93495059D01*
X137142009Y-93634740D01*
X137857991Y-93634740D01*
X138560215Y-93495059D01*
X139221695Y-93221065D01*
X139817012Y-92823287D01*
X140323287Y-92317012D01*
X140721065Y-91721695D01*
X140995059Y-91060215D01*
X141134740Y-90357991D01*
X141134740Y-89642009D01*
X141485260Y-89642009D01*
X141485260Y-90357991D01*
X141624941Y-91060215D01*
X141898935Y-91721695D01*
X142296713Y-92317012D01*
X142802988Y-92823287D01*
X143398305Y-93221065D01*
X144059785Y-93495059D01*
X144762009Y-93634740D01*
X145477991Y-93634740D01*
X146180215Y-93495059D01*
X146841695Y-93221065D01*
X147437012Y-92823287D01*
X147943287Y-92317012D01*
X147994443Y-92240451D01*
X164864750Y-92240451D01*
X164864750Y-92759549D01*
X164966021Y-93268674D01*
X165164672Y-93748259D01*
X165453068Y-94179874D01*
X165820126Y-94546932D01*
X166251741Y-94835328D01*
X166731326Y-95033979D01*
X167240451Y-95135250D01*
X167759549Y-95135250D01*
X168268674Y-95033979D01*
X168748259Y-94835328D01*
X169179874Y-94546932D01*
X169546932Y-94179874D01*
X169835328Y-93748259D01*
X170033979Y-93268674D01*
X170135250Y-92759549D01*
X170135250Y-92240451D01*
X170033979Y-91731326D01*
X169835328Y-91251741D01*
X169546932Y-90820126D01*
X169516806Y-90790000D01*
X175734025Y-90790000D01*
X175757870Y-91032102D01*
X175828489Y-91264901D01*
X175943167Y-91479449D01*
X176097498Y-91667502D01*
X176285551Y-91821833D01*
X176500099Y-91936511D01*
X176732898Y-92007130D01*
X176914335Y-92025000D01*
X177835665Y-92025000D01*
X178017102Y-92007130D01*
X178249901Y-91936511D01*
X178464449Y-91821833D01*
X178652502Y-91667502D01*
X178806833Y-91479449D01*
X178921511Y-91264901D01*
X178992130Y-91032102D01*
X179015975Y-90790000D01*
X181484025Y-90790000D01*
X181507870Y-91032102D01*
X181578489Y-91264901D01*
X181693167Y-91479449D01*
X181847498Y-91667502D01*
X182035551Y-91821833D01*
X182250099Y-91936511D01*
X182482898Y-92007130D01*
X182664335Y-92025000D01*
X183585665Y-92025000D01*
X183767102Y-92007130D01*
X183999901Y-91936511D01*
X184214449Y-91821833D01*
X184402502Y-91667502D01*
X184556833Y-91479449D01*
X184671511Y-91264901D01*
X184742130Y-91032102D01*
X184765975Y-90790000D01*
X184742130Y-90547898D01*
X184671511Y-90315099D01*
X184556833Y-90100551D01*
X184402502Y-89912498D01*
X184214449Y-89758167D01*
X183999901Y-89643489D01*
X183767102Y-89572870D01*
X183585665Y-89555000D01*
X182664335Y-89555000D01*
X182482898Y-89572870D01*
X182250099Y-89643489D01*
X182035551Y-89758167D01*
X181847498Y-89912498D01*
X181693167Y-90100551D01*
X181578489Y-90315099D01*
X181507870Y-90547898D01*
X181484025Y-90790000D01*
X179015975Y-90790000D01*
X178992130Y-90547898D01*
X178921511Y-90315099D01*
X178806833Y-90100551D01*
X178652502Y-89912498D01*
X178464449Y-89758167D01*
X178249901Y-89643489D01*
X178017102Y-89572870D01*
X177835665Y-89555000D01*
X176914335Y-89555000D01*
X176732898Y-89572870D01*
X176500099Y-89643489D01*
X176285551Y-89758167D01*
X176097498Y-89912498D01*
X175943167Y-90100551D01*
X175828489Y-90315099D01*
X175757870Y-90547898D01*
X175734025Y-90790000D01*
X169516806Y-90790000D01*
X169179874Y-90453068D01*
X168748259Y-90164672D01*
X168268674Y-89966021D01*
X167759549Y-89864750D01*
X167240451Y-89864750D01*
X166731326Y-89966021D01*
X166251741Y-90164672D01*
X165820126Y-90453068D01*
X165453068Y-90820126D01*
X165164672Y-91251741D01*
X164966021Y-91731326D01*
X164864750Y-92240451D01*
X147994443Y-92240451D01*
X148341065Y-91721695D01*
X148615059Y-91060215D01*
X148754740Y-90357991D01*
X148754740Y-89642009D01*
X148615059Y-88939785D01*
X148341065Y-88278305D01*
X148322153Y-88250000D01*
X175734025Y-88250000D01*
X175757870Y-88492102D01*
X175828489Y-88724901D01*
X175943167Y-88939449D01*
X176097498Y-89127502D01*
X176285551Y-89281833D01*
X176500099Y-89396511D01*
X176732898Y-89467130D01*
X176914335Y-89485000D01*
X177835665Y-89485000D01*
X178017102Y-89467130D01*
X178249901Y-89396511D01*
X178464449Y-89281833D01*
X178652502Y-89127502D01*
X178806833Y-88939449D01*
X178921511Y-88724901D01*
X178992130Y-88492102D01*
X179015975Y-88250000D01*
X181484025Y-88250000D01*
X181507870Y-88492102D01*
X181578489Y-88724901D01*
X181693167Y-88939449D01*
X181847498Y-89127502D01*
X182035551Y-89281833D01*
X182250099Y-89396511D01*
X182482898Y-89467130D01*
X182664335Y-89485000D01*
X183585665Y-89485000D01*
X183767102Y-89467130D01*
X183999901Y-89396511D01*
X184214449Y-89281833D01*
X184402502Y-89127502D01*
X184556833Y-88939449D01*
X184671511Y-88724901D01*
X184742130Y-88492102D01*
X184765975Y-88250000D01*
X184742130Y-88007898D01*
X184671511Y-87775099D01*
X184556833Y-87560551D01*
X184402502Y-87372498D01*
X184214449Y-87218167D01*
X183999901Y-87103489D01*
X183767102Y-87032870D01*
X183585665Y-87015000D01*
X182664335Y-87015000D01*
X182482898Y-87032870D01*
X182250099Y-87103489D01*
X182035551Y-87218167D01*
X181847498Y-87372498D01*
X181693167Y-87560551D01*
X181578489Y-87775099D01*
X181507870Y-88007898D01*
X181484025Y-88250000D01*
X179015975Y-88250000D01*
X178992130Y-88007898D01*
X178921511Y-87775099D01*
X178806833Y-87560551D01*
X178652502Y-87372498D01*
X178464449Y-87218167D01*
X178249901Y-87103489D01*
X178017102Y-87032870D01*
X177835665Y-87015000D01*
X176914335Y-87015000D01*
X176732898Y-87032870D01*
X176500099Y-87103489D01*
X176285551Y-87218167D01*
X176097498Y-87372498D01*
X175943167Y-87560551D01*
X175828489Y-87775099D01*
X175757870Y-88007898D01*
X175734025Y-88250000D01*
X148322153Y-88250000D01*
X147943287Y-87682988D01*
X147437012Y-87176713D01*
X146841695Y-86778935D01*
X146180215Y-86504941D01*
X145477991Y-86365260D01*
X144762009Y-86365260D01*
X144059785Y-86504941D01*
X143398305Y-86778935D01*
X142802988Y-87176713D01*
X142296713Y-87682988D01*
X141898935Y-88278305D01*
X141624941Y-88939785D01*
X141485260Y-89642009D01*
X141134740Y-89642009D01*
X140995059Y-88939785D01*
X140721065Y-88278305D01*
X140323287Y-87682988D01*
X139817012Y-87176713D01*
X139221695Y-86778935D01*
X138560215Y-86504941D01*
X137857991Y-86365260D01*
X137142009Y-86365260D01*
X136439785Y-86504941D01*
X135778305Y-86778935D01*
X135182988Y-87176713D01*
X134676713Y-87682988D01*
X134278935Y-88278305D01*
X134004941Y-88939785D01*
X133865260Y-89642009D01*
X133517812Y-89642009D01*
X133517812Y-87000260D01*
X133505552Y-86875778D01*
X133469242Y-86756080D01*
X133410277Y-86645766D01*
X133330925Y-86549075D01*
X133234234Y-86469723D01*
X133123920Y-86410758D01*
X133004222Y-86374448D01*
X132879740Y-86362188D01*
X126880260Y-86362188D01*
X126755778Y-86374448D01*
X126636080Y-86410758D01*
X126525766Y-86469723D01*
X126429075Y-86549075D01*
X126349723Y-86645766D01*
X126290758Y-86756080D01*
X126254448Y-86875778D01*
X126242188Y-87000260D01*
X124114392Y-87000260D01*
X124111434Y-86990512D01*
X123964256Y-86715161D01*
X123766187Y-86473813D01*
X123524838Y-86275744D01*
X123249487Y-86128566D01*
X122950713Y-86037934D01*
X122640000Y-86007331D01*
X122329286Y-86037934D01*
X122030512Y-86128566D01*
X121755161Y-86275744D01*
X121636654Y-86373000D01*
X120639729Y-86373000D01*
X120574494Y-86319463D01*
X120464180Y-86260498D01*
X120344482Y-86224188D01*
X120220000Y-86211928D01*
X118920000Y-86211928D01*
X118795518Y-86224188D01*
X118675820Y-86260498D01*
X118565506Y-86319463D01*
X118500271Y-86373000D01*
X117696266Y-86373000D01*
X117678676Y-86361247D01*
X117444821Y-86264381D01*
X117196561Y-86215000D01*
X116943439Y-86215000D01*
X116695179Y-86264381D01*
X116461324Y-86361247D01*
X116455707Y-86365000D01*
X115684293Y-86365000D01*
X115678676Y-86361247D01*
X115444821Y-86264381D01*
X115196561Y-86215000D01*
X114943439Y-86215000D01*
X114695179Y-86264381D01*
X114461324Y-86361247D01*
X114443734Y-86373000D01*
X110503346Y-86373000D01*
X110384839Y-86275744D01*
X110109488Y-86128566D01*
X109810714Y-86037934D01*
X109500000Y-86007331D01*
X109189287Y-86037934D01*
X108890513Y-86128566D01*
X108615162Y-86275744D01*
X108373814Y-86473813D01*
X108175744Y-86715161D01*
X108028566Y-86990512D01*
X107937934Y-87289286D01*
X107915000Y-87522136D01*
X105660000Y-87522136D01*
X105660000Y-85710000D01*
X181484025Y-85710000D01*
X181507870Y-85952102D01*
X181578489Y-86184901D01*
X181693167Y-86399449D01*
X181847498Y-86587502D01*
X182035551Y-86741833D01*
X182250099Y-86856511D01*
X182482898Y-86927130D01*
X182664335Y-86945000D01*
X183585665Y-86945000D01*
X183767102Y-86927130D01*
X183999901Y-86856511D01*
X184214449Y-86741833D01*
X184402502Y-86587502D01*
X184556833Y-86399449D01*
X184671511Y-86184901D01*
X184742130Y-85952102D01*
X184765975Y-85710000D01*
X184742130Y-85467898D01*
X184671511Y-85235099D01*
X184556833Y-85020551D01*
X184402502Y-84832498D01*
X184214449Y-84678167D01*
X183999901Y-84563489D01*
X183767102Y-84492870D01*
X183585665Y-84475000D01*
X182664335Y-84475000D01*
X182482898Y-84492870D01*
X182250099Y-84563489D01*
X182035551Y-84678167D01*
X181847498Y-84832498D01*
X181693167Y-85020551D01*
X181578489Y-85235099D01*
X181507870Y-85467898D01*
X181484025Y-85710000D01*
X105660000Y-85710000D01*
X105660000Y-77279872D01*
X106265000Y-77279872D01*
X106265000Y-77720128D01*
X106350890Y-78151925D01*
X106519369Y-78558669D01*
X106763962Y-78924729D01*
X107075271Y-79236038D01*
X107441331Y-79480631D01*
X107848075Y-79649110D01*
X108279872Y-79735000D01*
X108720128Y-79735000D01*
X109151925Y-79649110D01*
X109558669Y-79480631D01*
X109924729Y-79236038D01*
X110236038Y-78924729D01*
X110480631Y-78558669D01*
X110649110Y-78151925D01*
X110735000Y-77720128D01*
X110735000Y-77279872D01*
X184265000Y-77279872D01*
X184265000Y-77720128D01*
X184350890Y-78151925D01*
X184519369Y-78558669D01*
X184763962Y-78924729D01*
X185075271Y-79236038D01*
X185441331Y-79480631D01*
X185848075Y-79649110D01*
X186279872Y-79735000D01*
X186720128Y-79735000D01*
X187151925Y-79649110D01*
X187558669Y-79480631D01*
X187924729Y-79236038D01*
X188236038Y-78924729D01*
X188480631Y-78558669D01*
X188649110Y-78151925D01*
X188735000Y-77720128D01*
X188735000Y-77279872D01*
X188649110Y-76848075D01*
X188480631Y-76441331D01*
X188236038Y-76075271D01*
X187924729Y-75763962D01*
X187558669Y-75519369D01*
X187151925Y-75350890D01*
X186720128Y-75265000D01*
X186279872Y-75265000D01*
X185848075Y-75350890D01*
X185441331Y-75519369D01*
X185075271Y-75763962D01*
X184763962Y-76075271D01*
X184519369Y-76441331D01*
X184350890Y-76848075D01*
X184265000Y-77279872D01*
X110735000Y-77279872D01*
X110649110Y-76848075D01*
X110480631Y-76441331D01*
X110236038Y-76075271D01*
X109924729Y-75763962D01*
X109558669Y-75519369D01*
X109151925Y-75350890D01*
X108720128Y-75265000D01*
X108279872Y-75265000D01*
X107848075Y-75350890D01*
X107441331Y-75519369D01*
X107075271Y-75763962D01*
X106763962Y-76075271D01*
X106519369Y-76441331D01*
X106350890Y-76848075D01*
X106265000Y-77279872D01*
X105660000Y-77279872D01*
X105660000Y-69346510D01*
X110865000Y-69346510D01*
X110865000Y-70653490D01*
X111119979Y-71935358D01*
X111620139Y-73142851D01*
X112346259Y-74229566D01*
X113270434Y-75153741D01*
X114357149Y-75879861D01*
X115564642Y-76380021D01*
X116846510Y-76635000D01*
X118153490Y-76635000D01*
X119435358Y-76380021D01*
X120642851Y-75879861D01*
X121729566Y-75153741D01*
X122653741Y-74229566D01*
X123379861Y-73142851D01*
X123880021Y-71935358D01*
X124113814Y-70760000D01*
X125493827Y-70760000D01*
X125504053Y-70793709D01*
X125585542Y-70946164D01*
X125695208Y-71079792D01*
X125828836Y-71189458D01*
X125981291Y-71270947D01*
X126146715Y-71321128D01*
X126318750Y-71338072D01*
X126806250Y-71338072D01*
X126978285Y-71321128D01*
X127143709Y-71270947D01*
X127296164Y-71189458D01*
X127429792Y-71079792D01*
X127500000Y-70994244D01*
X127527501Y-71027753D01*
X127527500Y-71584857D01*
X127462885Y-71637885D01*
X127356329Y-71767725D01*
X127277150Y-71915858D01*
X127228392Y-72076592D01*
X127211928Y-72243750D01*
X127211928Y-72756250D01*
X127228392Y-72923408D01*
X127277150Y-73084142D01*
X127356329Y-73232275D01*
X127462885Y-73362115D01*
X127592725Y-73468671D01*
X127740858Y-73547850D01*
X127901592Y-73596608D01*
X128068750Y-73613072D01*
X128506250Y-73613072D01*
X128673408Y-73596608D01*
X128834142Y-73547850D01*
X128982275Y-73468671D01*
X129112115Y-73362115D01*
X129218671Y-73232275D01*
X129297850Y-73084142D01*
X129346608Y-72923408D01*
X129363072Y-72756250D01*
X129363072Y-72243750D01*
X129346608Y-72076592D01*
X129297850Y-71915858D01*
X129218671Y-71767725D01*
X129112115Y-71637885D01*
X129047500Y-71584857D01*
X129047500Y-71255558D01*
X129171164Y-71189458D01*
X129304792Y-71079792D01*
X129414458Y-70946164D01*
X129495947Y-70793709D01*
X129546128Y-70628285D01*
X129563072Y-70456250D01*
X129563072Y-69543750D01*
X129546128Y-69371715D01*
X129538483Y-69346510D01*
X130865000Y-69346510D01*
X130865000Y-70653490D01*
X131119979Y-71935358D01*
X131620139Y-73142851D01*
X132346259Y-74229566D01*
X133270434Y-75153741D01*
X134357149Y-75879861D01*
X135564642Y-76380021D01*
X136846510Y-76635000D01*
X138153490Y-76635000D01*
X139435358Y-76380021D01*
X140642851Y-75879861D01*
X141729566Y-75153741D01*
X142653741Y-74229566D01*
X143379861Y-73142851D01*
X143880021Y-71935358D01*
X144113814Y-70760000D01*
X145493827Y-70760000D01*
X145504053Y-70793709D01*
X145585542Y-70946164D01*
X145695208Y-71079792D01*
X145828836Y-71189458D01*
X145981291Y-71270947D01*
X146146715Y-71321128D01*
X146318750Y-71338072D01*
X146806250Y-71338072D01*
X146978285Y-71321128D01*
X147143709Y-71270947D01*
X147296164Y-71189458D01*
X147429792Y-71079792D01*
X147500000Y-70994244D01*
X147527501Y-71027753D01*
X147527500Y-71584857D01*
X147462885Y-71637885D01*
X147356329Y-71767725D01*
X147277150Y-71915858D01*
X147228392Y-72076592D01*
X147211928Y-72243750D01*
X147211928Y-72756250D01*
X147228392Y-72923408D01*
X147277150Y-73084142D01*
X147356329Y-73232275D01*
X147462885Y-73362115D01*
X147592725Y-73468671D01*
X147740858Y-73547850D01*
X147901592Y-73596608D01*
X148068750Y-73613072D01*
X148506250Y-73613072D01*
X148673408Y-73596608D01*
X148834142Y-73547850D01*
X148982275Y-73468671D01*
X149112115Y-73362115D01*
X149218671Y-73232275D01*
X149297850Y-73084142D01*
X149346608Y-72923408D01*
X149363072Y-72756250D01*
X149363072Y-72243750D01*
X149346608Y-72076592D01*
X149297850Y-71915858D01*
X149218671Y-71767725D01*
X149112115Y-71637885D01*
X149047500Y-71584857D01*
X149047500Y-71255558D01*
X149171164Y-71189458D01*
X149304792Y-71079792D01*
X149414458Y-70946164D01*
X149495947Y-70793709D01*
X149546128Y-70628285D01*
X149563072Y-70456250D01*
X149563072Y-69543750D01*
X149546128Y-69371715D01*
X149538483Y-69346510D01*
X150865000Y-69346510D01*
X150865000Y-70653490D01*
X151119979Y-71935358D01*
X151620139Y-73142851D01*
X152346259Y-74229566D01*
X153270434Y-75153741D01*
X154357149Y-75879861D01*
X155564642Y-76380021D01*
X156846510Y-76635000D01*
X158153490Y-76635000D01*
X159435358Y-76380021D01*
X160642851Y-75879861D01*
X161729566Y-75153741D01*
X162653741Y-74229566D01*
X163379861Y-73142851D01*
X163880021Y-71935358D01*
X164113814Y-70760000D01*
X165493827Y-70760000D01*
X165504053Y-70793709D01*
X165585542Y-70946164D01*
X165695208Y-71079792D01*
X165828836Y-71189458D01*
X165981291Y-71270947D01*
X166146715Y-71321128D01*
X166318750Y-71338072D01*
X166806250Y-71338072D01*
X166978285Y-71321128D01*
X167143709Y-71270947D01*
X167296164Y-71189458D01*
X167429792Y-71079792D01*
X167500000Y-70994244D01*
X167527501Y-71027753D01*
X167527500Y-71584857D01*
X167462885Y-71637885D01*
X167356329Y-71767725D01*
X167277150Y-71915858D01*
X167228392Y-72076592D01*
X167211928Y-72243750D01*
X167211928Y-72756250D01*
X167228392Y-72923408D01*
X167277150Y-73084142D01*
X167356329Y-73232275D01*
X167462885Y-73362115D01*
X167592725Y-73468671D01*
X167740858Y-73547850D01*
X167901592Y-73596608D01*
X168068750Y-73613072D01*
X168506250Y-73613072D01*
X168673408Y-73596608D01*
X168834142Y-73547850D01*
X168982275Y-73468671D01*
X169112115Y-73362115D01*
X169218671Y-73232275D01*
X169297850Y-73084142D01*
X169346608Y-72923408D01*
X169363072Y-72756250D01*
X169363072Y-72243750D01*
X169346608Y-72076592D01*
X169297850Y-71915858D01*
X169218671Y-71767725D01*
X169112115Y-71637885D01*
X169047500Y-71584857D01*
X169047500Y-71255558D01*
X169171164Y-71189458D01*
X169304792Y-71079792D01*
X169414458Y-70946164D01*
X169495947Y-70793709D01*
X169546128Y-70628285D01*
X169563072Y-70456250D01*
X169563072Y-69543750D01*
X169546128Y-69371715D01*
X169495947Y-69206291D01*
X169414458Y-69053836D01*
X169304792Y-68920208D01*
X169171164Y-68810542D01*
X169018709Y-68729053D01*
X168853285Y-68678872D01*
X168681250Y-68661928D01*
X168193750Y-68661928D01*
X168021715Y-68678872D01*
X167856291Y-68729053D01*
X167703836Y-68810542D01*
X167570208Y-68920208D01*
X167500000Y-69005756D01*
X167429792Y-68920208D01*
X167296164Y-68810542D01*
X167143709Y-68729053D01*
X166978285Y-68678872D01*
X166806250Y-68661928D01*
X166318750Y-68661928D01*
X166146715Y-68678872D01*
X165981291Y-68729053D01*
X165828836Y-68810542D01*
X165695208Y-68920208D01*
X165585542Y-69053836D01*
X165504053Y-69206291D01*
X165493827Y-69240000D01*
X164113814Y-69240000D01*
X163880021Y-68064642D01*
X163379861Y-66857149D01*
X162653741Y-65770434D01*
X161729566Y-64846259D01*
X160642851Y-64120139D01*
X159435358Y-63619979D01*
X158153490Y-63365000D01*
X156846510Y-63365000D01*
X155564642Y-63619979D01*
X154357149Y-64120139D01*
X153270434Y-64846259D01*
X152346259Y-65770434D01*
X151620139Y-66857149D01*
X151119979Y-68064642D01*
X150865000Y-69346510D01*
X149538483Y-69346510D01*
X149495947Y-69206291D01*
X149414458Y-69053836D01*
X149304792Y-68920208D01*
X149171164Y-68810542D01*
X149018709Y-68729053D01*
X148853285Y-68678872D01*
X148681250Y-68661928D01*
X148193750Y-68661928D01*
X148021715Y-68678872D01*
X147856291Y-68729053D01*
X147703836Y-68810542D01*
X147570208Y-68920208D01*
X147500000Y-69005756D01*
X147429792Y-68920208D01*
X147296164Y-68810542D01*
X147143709Y-68729053D01*
X146978285Y-68678872D01*
X146806250Y-68661928D01*
X146318750Y-68661928D01*
X146146715Y-68678872D01*
X145981291Y-68729053D01*
X145828836Y-68810542D01*
X145695208Y-68920208D01*
X145585542Y-69053836D01*
X145504053Y-69206291D01*
X145493827Y-69240000D01*
X144113814Y-69240000D01*
X143880021Y-68064642D01*
X143379861Y-66857149D01*
X142653741Y-65770434D01*
X141729566Y-64846259D01*
X140642851Y-64120139D01*
X139435358Y-63619979D01*
X138153490Y-63365000D01*
X136846510Y-63365000D01*
X135564642Y-63619979D01*
X134357149Y-64120139D01*
X133270434Y-64846259D01*
X132346259Y-65770434D01*
X131620139Y-66857149D01*
X131119979Y-68064642D01*
X130865000Y-69346510D01*
X129538483Y-69346510D01*
X129495947Y-69206291D01*
X129414458Y-69053836D01*
X129304792Y-68920208D01*
X129171164Y-68810542D01*
X129018709Y-68729053D01*
X128853285Y-68678872D01*
X128681250Y-68661928D01*
X128193750Y-68661928D01*
X128021715Y-68678872D01*
X127856291Y-68729053D01*
X127703836Y-68810542D01*
X127570208Y-68920208D01*
X127500000Y-69005756D01*
X127429792Y-68920208D01*
X127296164Y-68810542D01*
X127143709Y-68729053D01*
X126978285Y-68678872D01*
X126806250Y-68661928D01*
X126318750Y-68661928D01*
X126146715Y-68678872D01*
X125981291Y-68729053D01*
X125828836Y-68810542D01*
X125695208Y-68920208D01*
X125585542Y-69053836D01*
X125504053Y-69206291D01*
X125493827Y-69240000D01*
X124113814Y-69240000D01*
X123880021Y-68064642D01*
X123379861Y-66857149D01*
X122653741Y-65770434D01*
X121729566Y-64846259D01*
X120642851Y-64120139D01*
X119435358Y-63619979D01*
X118153490Y-63365000D01*
X116846510Y-63365000D01*
X115564642Y-63619979D01*
X114357149Y-64120139D01*
X113270434Y-64846259D01*
X112346259Y-65770434D01*
X111620139Y-66857149D01*
X111119979Y-68064642D01*
X110865000Y-69346510D01*
X105660000Y-69346510D01*
X105660000Y-60029392D01*
X105731173Y-59231917D01*
X105934656Y-58488109D01*
X106266638Y-57792095D01*
X106716626Y-57165870D01*
X107270403Y-56629223D01*
X107910451Y-56199129D01*
X108616553Y-55889171D01*
X109371457Y-55707935D01*
X110024207Y-55660000D01*
X184970608Y-55660000D01*
X185768083Y-55731173D01*
G37*
X185768083Y-55731173D02*
X186511891Y-55934656D01*
X187207905Y-56266638D01*
X187834130Y-56716626D01*
X188370777Y-57270403D01*
X188800871Y-57910451D01*
X189110829Y-58616553D01*
X189292065Y-59371457D01*
X189340001Y-60024220D01*
X189340001Y-97373000D01*
X105660000Y-97373000D01*
X105660000Y-87522136D01*
X107915000Y-87522136D01*
X107915000Y-88677863D01*
X107937934Y-88910713D01*
X108028566Y-89209487D01*
X108175744Y-89484838D01*
X108373813Y-89726187D01*
X108615161Y-89924256D01*
X108890512Y-90071434D01*
X109189286Y-90162066D01*
X109273000Y-90170311D01*
X109273000Y-92300000D01*
X109275440Y-92324776D01*
X109282667Y-92348601D01*
X109294403Y-92370557D01*
X109310197Y-92389803D01*
X109329443Y-92405597D01*
X109351399Y-92417333D01*
X109375224Y-92424560D01*
X109400000Y-92427000D01*
X113991809Y-92427000D01*
X114007934Y-92590714D01*
X114098566Y-92889488D01*
X114245744Y-93164839D01*
X114443813Y-93406187D01*
X114685161Y-93604256D01*
X114960512Y-93751434D01*
X115259286Y-93842066D01*
X115492136Y-93865000D01*
X116647864Y-93865000D01*
X116880714Y-93842066D01*
X117179488Y-93751434D01*
X117454839Y-93604256D01*
X117696187Y-93406187D01*
X117894256Y-93164839D01*
X118041434Y-92889488D01*
X118132066Y-92590714D01*
X118148191Y-92427000D01*
X122700000Y-92427000D01*
X122724776Y-92424560D01*
X122748601Y-92417333D01*
X122770557Y-92405597D01*
X122789803Y-92389803D01*
X122805597Y-92370557D01*
X122817333Y-92348601D01*
X122824560Y-92324776D01*
X122827000Y-92300000D01*
X122827000Y-90174251D01*
X122950714Y-90162066D01*
X123249488Y-90071434D01*
X123524839Y-89924256D01*
X123766187Y-89726187D01*
X123964256Y-89484839D01*
X124111434Y-89209488D01*
X124202066Y-88910714D01*
X124225000Y-88677864D01*
X124225000Y-87522136D01*
X124202066Y-87289286D01*
X124114392Y-87000260D01*
X126242188Y-87000260D01*
X126242188Y-92999740D01*
X126254448Y-93124222D01*
X126290758Y-93243920D01*
X126349723Y-93354234D01*
X126429075Y-93450925D01*
X126525766Y-93530277D01*
X126636080Y-93589242D01*
X126755778Y-93625552D01*
X126880260Y-93637812D01*
X132879740Y-93637812D01*
X133004222Y-93625552D01*
X133123920Y-93589242D01*
X133234234Y-93530277D01*
X133330925Y-93450925D01*
X133410277Y-93354234D01*
X133469242Y-93243920D01*
X133505552Y-93124222D01*
X133517812Y-92999740D01*
X133517812Y-89642009D01*
X133865260Y-89642009D01*
X133865260Y-90357991D01*
X134004941Y-91060215D01*
X134278935Y-91721695D01*
X134676713Y-92317012D01*
X135182988Y-92823287D01*
X135778305Y-93221065D01*
X136439785Y-93495059D01*
X137142009Y-93634740D01*
X137857991Y-93634740D01*
X138560215Y-93495059D01*
X139221695Y-93221065D01*
X139817012Y-92823287D01*
X140323287Y-92317012D01*
X140721065Y-91721695D01*
X140995059Y-91060215D01*
X141134740Y-90357991D01*
X141134740Y-89642009D01*
X141485260Y-89642009D01*
X141485260Y-90357991D01*
X141624941Y-91060215D01*
X141898935Y-91721695D01*
X142296713Y-92317012D01*
X142802988Y-92823287D01*
X143398305Y-93221065D01*
X144059785Y-93495059D01*
X144762009Y-93634740D01*
X145477991Y-93634740D01*
X146180215Y-93495059D01*
X146841695Y-93221065D01*
X147437012Y-92823287D01*
X147943287Y-92317012D01*
X147994443Y-92240451D01*
X164864750Y-92240451D01*
X164864750Y-92759549D01*
X164966021Y-93268674D01*
X165164672Y-93748259D01*
X165453068Y-94179874D01*
X165820126Y-94546932D01*
X166251741Y-94835328D01*
X166731326Y-95033979D01*
X167240451Y-95135250D01*
X167759549Y-95135250D01*
X168268674Y-95033979D01*
X168748259Y-94835328D01*
X169179874Y-94546932D01*
X169546932Y-94179874D01*
X169835328Y-93748259D01*
X170033979Y-93268674D01*
X170135250Y-92759549D01*
X170135250Y-92240451D01*
X170033979Y-91731326D01*
X169835328Y-91251741D01*
X169546932Y-90820126D01*
X169516806Y-90790000D01*
X175734025Y-90790000D01*
X175757870Y-91032102D01*
X175828489Y-91264901D01*
X175943167Y-91479449D01*
X176097498Y-91667502D01*
X176285551Y-91821833D01*
X176500099Y-91936511D01*
X176732898Y-92007130D01*
X176914335Y-92025000D01*
X177835665Y-92025000D01*
X178017102Y-92007130D01*
X178249901Y-91936511D01*
X178464449Y-91821833D01*
X178652502Y-91667502D01*
X178806833Y-91479449D01*
X178921511Y-91264901D01*
X178992130Y-91032102D01*
X179015975Y-90790000D01*
X181484025Y-90790000D01*
X181507870Y-91032102D01*
X181578489Y-91264901D01*
X181693167Y-91479449D01*
X181847498Y-91667502D01*
X182035551Y-91821833D01*
X182250099Y-91936511D01*
X182482898Y-92007130D01*
X182664335Y-92025000D01*
X183585665Y-92025000D01*
X183767102Y-92007130D01*
X183999901Y-91936511D01*
X184214449Y-91821833D01*
X184402502Y-91667502D01*
X184556833Y-91479449D01*
X184671511Y-91264901D01*
X184742130Y-91032102D01*
X184765975Y-90790000D01*
X184742130Y-90547898D01*
X184671511Y-90315099D01*
X184556833Y-90100551D01*
X184402502Y-89912498D01*
X184214449Y-89758167D01*
X183999901Y-89643489D01*
X183767102Y-89572870D01*
X183585665Y-89555000D01*
X182664335Y-89555000D01*
X182482898Y-89572870D01*
X182250099Y-89643489D01*
X182035551Y-89758167D01*
X181847498Y-89912498D01*
X181693167Y-90100551D01*
X181578489Y-90315099D01*
X181507870Y-90547898D01*
X181484025Y-90790000D01*
X179015975Y-90790000D01*
X178992130Y-90547898D01*
X178921511Y-90315099D01*
X178806833Y-90100551D01*
X178652502Y-89912498D01*
X178464449Y-89758167D01*
X178249901Y-89643489D01*
X178017102Y-89572870D01*
X177835665Y-89555000D01*
X176914335Y-89555000D01*
X176732898Y-89572870D01*
X176500099Y-89643489D01*
X176285551Y-89758167D01*
X176097498Y-89912498D01*
X175943167Y-90100551D01*
X175828489Y-90315099D01*
X175757870Y-90547898D01*
X175734025Y-90790000D01*
X169516806Y-90790000D01*
X169179874Y-90453068D01*
X168748259Y-90164672D01*
X168268674Y-89966021D01*
X167759549Y-89864750D01*
X167240451Y-89864750D01*
X166731326Y-89966021D01*
X166251741Y-90164672D01*
X165820126Y-90453068D01*
X165453068Y-90820126D01*
X165164672Y-91251741D01*
X164966021Y-91731326D01*
X164864750Y-92240451D01*
X147994443Y-92240451D01*
X148341065Y-91721695D01*
X148615059Y-91060215D01*
X148754740Y-90357991D01*
X148754740Y-89642009D01*
X148615059Y-88939785D01*
X148341065Y-88278305D01*
X148322153Y-88250000D01*
X175734025Y-88250000D01*
X175757870Y-88492102D01*
X175828489Y-88724901D01*
X175943167Y-88939449D01*
X176097498Y-89127502D01*
X176285551Y-89281833D01*
X176500099Y-89396511D01*
X176732898Y-89467130D01*
X176914335Y-89485000D01*
X177835665Y-89485000D01*
X178017102Y-89467130D01*
X178249901Y-89396511D01*
X178464449Y-89281833D01*
X178652502Y-89127502D01*
X178806833Y-88939449D01*
X178921511Y-88724901D01*
X178992130Y-88492102D01*
X179015975Y-88250000D01*
X181484025Y-88250000D01*
X181507870Y-88492102D01*
X181578489Y-88724901D01*
X181693167Y-88939449D01*
X181847498Y-89127502D01*
X182035551Y-89281833D01*
X182250099Y-89396511D01*
X182482898Y-89467130D01*
X182664335Y-89485000D01*
X183585665Y-89485000D01*
X183767102Y-89467130D01*
X183999901Y-89396511D01*
X184214449Y-89281833D01*
X184402502Y-89127502D01*
X184556833Y-88939449D01*
X184671511Y-88724901D01*
X184742130Y-88492102D01*
X184765975Y-88250000D01*
X184742130Y-88007898D01*
X184671511Y-87775099D01*
X184556833Y-87560551D01*
X184402502Y-87372498D01*
X184214449Y-87218167D01*
X183999901Y-87103489D01*
X183767102Y-87032870D01*
X183585665Y-87015000D01*
X182664335Y-87015000D01*
X182482898Y-87032870D01*
X182250099Y-87103489D01*
X182035551Y-87218167D01*
X181847498Y-87372498D01*
X181693167Y-87560551D01*
X181578489Y-87775099D01*
X181507870Y-88007898D01*
X181484025Y-88250000D01*
X179015975Y-88250000D01*
X178992130Y-88007898D01*
X178921511Y-87775099D01*
X178806833Y-87560551D01*
X178652502Y-87372498D01*
X178464449Y-87218167D01*
X178249901Y-87103489D01*
X178017102Y-87032870D01*
X177835665Y-87015000D01*
X176914335Y-87015000D01*
X176732898Y-87032870D01*
X176500099Y-87103489D01*
X176285551Y-87218167D01*
X176097498Y-87372498D01*
X175943167Y-87560551D01*
X175828489Y-87775099D01*
X175757870Y-88007898D01*
X175734025Y-88250000D01*
X148322153Y-88250000D01*
X147943287Y-87682988D01*
X147437012Y-87176713D01*
X146841695Y-86778935D01*
X146180215Y-86504941D01*
X145477991Y-86365260D01*
X144762009Y-86365260D01*
X144059785Y-86504941D01*
X143398305Y-86778935D01*
X142802988Y-87176713D01*
X142296713Y-87682988D01*
X141898935Y-88278305D01*
X141624941Y-88939785D01*
X141485260Y-89642009D01*
X141134740Y-89642009D01*
X140995059Y-88939785D01*
X140721065Y-88278305D01*
X140323287Y-87682988D01*
X139817012Y-87176713D01*
X139221695Y-86778935D01*
X138560215Y-86504941D01*
X137857991Y-86365260D01*
X137142009Y-86365260D01*
X136439785Y-86504941D01*
X135778305Y-86778935D01*
X135182988Y-87176713D01*
X134676713Y-87682988D01*
X134278935Y-88278305D01*
X134004941Y-88939785D01*
X133865260Y-89642009D01*
X133517812Y-89642009D01*
X133517812Y-87000260D01*
X133505552Y-86875778D01*
X133469242Y-86756080D01*
X133410277Y-86645766D01*
X133330925Y-86549075D01*
X133234234Y-86469723D01*
X133123920Y-86410758D01*
X133004222Y-86374448D01*
X132879740Y-86362188D01*
X126880260Y-86362188D01*
X126755778Y-86374448D01*
X126636080Y-86410758D01*
X126525766Y-86469723D01*
X126429075Y-86549075D01*
X126349723Y-86645766D01*
X126290758Y-86756080D01*
X126254448Y-86875778D01*
X126242188Y-87000260D01*
X124114392Y-87000260D01*
X124111434Y-86990512D01*
X123964256Y-86715161D01*
X123766187Y-86473813D01*
X123524838Y-86275744D01*
X123249487Y-86128566D01*
X122950713Y-86037934D01*
X122640000Y-86007331D01*
X122329286Y-86037934D01*
X122030512Y-86128566D01*
X121755161Y-86275744D01*
X121636654Y-86373000D01*
X120639729Y-86373000D01*
X120574494Y-86319463D01*
X120464180Y-86260498D01*
X120344482Y-86224188D01*
X120220000Y-86211928D01*
X118920000Y-86211928D01*
X118795518Y-86224188D01*
X118675820Y-86260498D01*
X118565506Y-86319463D01*
X118500271Y-86373000D01*
X117696266Y-86373000D01*
X117678676Y-86361247D01*
X117444821Y-86264381D01*
X117196561Y-86215000D01*
X116943439Y-86215000D01*
X116695179Y-86264381D01*
X116461324Y-86361247D01*
X116455707Y-86365000D01*
X115684293Y-86365000D01*
X115678676Y-86361247D01*
X115444821Y-86264381D01*
X115196561Y-86215000D01*
X114943439Y-86215000D01*
X114695179Y-86264381D01*
X114461324Y-86361247D01*
X114443734Y-86373000D01*
X110503346Y-86373000D01*
X110384839Y-86275744D01*
X110109488Y-86128566D01*
X109810714Y-86037934D01*
X109500000Y-86007331D01*
X109189287Y-86037934D01*
X108890513Y-86128566D01*
X108615162Y-86275744D01*
X108373814Y-86473813D01*
X108175744Y-86715161D01*
X108028566Y-86990512D01*
X107937934Y-87289286D01*
X107915000Y-87522136D01*
X105660000Y-87522136D01*
X105660000Y-85710000D01*
X181484025Y-85710000D01*
X181507870Y-85952102D01*
X181578489Y-86184901D01*
X181693167Y-86399449D01*
X181847498Y-86587502D01*
X182035551Y-86741833D01*
X182250099Y-86856511D01*
X182482898Y-86927130D01*
X182664335Y-86945000D01*
X183585665Y-86945000D01*
X183767102Y-86927130D01*
X183999901Y-86856511D01*
X184214449Y-86741833D01*
X184402502Y-86587502D01*
X184556833Y-86399449D01*
X184671511Y-86184901D01*
X184742130Y-85952102D01*
X184765975Y-85710000D01*
X184742130Y-85467898D01*
X184671511Y-85235099D01*
X184556833Y-85020551D01*
X184402502Y-84832498D01*
X184214449Y-84678167D01*
X183999901Y-84563489D01*
X183767102Y-84492870D01*
X183585665Y-84475000D01*
X182664335Y-84475000D01*
X182482898Y-84492870D01*
X182250099Y-84563489D01*
X182035551Y-84678167D01*
X181847498Y-84832498D01*
X181693167Y-85020551D01*
X181578489Y-85235099D01*
X181507870Y-85467898D01*
X181484025Y-85710000D01*
X105660000Y-85710000D01*
X105660000Y-77279872D01*
X106265000Y-77279872D01*
X106265000Y-77720128D01*
X106350890Y-78151925D01*
X106519369Y-78558669D01*
X106763962Y-78924729D01*
X107075271Y-79236038D01*
X107441331Y-79480631D01*
X107848075Y-79649110D01*
X108279872Y-79735000D01*
X108720128Y-79735000D01*
X109151925Y-79649110D01*
X109558669Y-79480631D01*
X109924729Y-79236038D01*
X110236038Y-78924729D01*
X110480631Y-78558669D01*
X110649110Y-78151925D01*
X110735000Y-77720128D01*
X110735000Y-77279872D01*
X184265000Y-77279872D01*
X184265000Y-77720128D01*
X184350890Y-78151925D01*
X184519369Y-78558669D01*
X184763962Y-78924729D01*
X185075271Y-79236038D01*
X185441331Y-79480631D01*
X185848075Y-79649110D01*
X186279872Y-79735000D01*
X186720128Y-79735000D01*
X187151925Y-79649110D01*
X187558669Y-79480631D01*
X187924729Y-79236038D01*
X188236038Y-78924729D01*
X188480631Y-78558669D01*
X188649110Y-78151925D01*
X188735000Y-77720128D01*
X188735000Y-77279872D01*
X188649110Y-76848075D01*
X188480631Y-76441331D01*
X188236038Y-76075271D01*
X187924729Y-75763962D01*
X187558669Y-75519369D01*
X187151925Y-75350890D01*
X186720128Y-75265000D01*
X186279872Y-75265000D01*
X185848075Y-75350890D01*
X185441331Y-75519369D01*
X185075271Y-75763962D01*
X184763962Y-76075271D01*
X184519369Y-76441331D01*
X184350890Y-76848075D01*
X184265000Y-77279872D01*
X110735000Y-77279872D01*
X110649110Y-76848075D01*
X110480631Y-76441331D01*
X110236038Y-76075271D01*
X109924729Y-75763962D01*
X109558669Y-75519369D01*
X109151925Y-75350890D01*
X108720128Y-75265000D01*
X108279872Y-75265000D01*
X107848075Y-75350890D01*
X107441331Y-75519369D01*
X107075271Y-75763962D01*
X106763962Y-76075271D01*
X106519369Y-76441331D01*
X106350890Y-76848075D01*
X106265000Y-77279872D01*
X105660000Y-77279872D01*
X105660000Y-69346510D01*
X110865000Y-69346510D01*
X110865000Y-70653490D01*
X111119979Y-71935358D01*
X111620139Y-73142851D01*
X112346259Y-74229566D01*
X113270434Y-75153741D01*
X114357149Y-75879861D01*
X115564642Y-76380021D01*
X116846510Y-76635000D01*
X118153490Y-76635000D01*
X119435358Y-76380021D01*
X120642851Y-75879861D01*
X121729566Y-75153741D01*
X122653741Y-74229566D01*
X123379861Y-73142851D01*
X123880021Y-71935358D01*
X124113814Y-70760000D01*
X125493827Y-70760000D01*
X125504053Y-70793709D01*
X125585542Y-70946164D01*
X125695208Y-71079792D01*
X125828836Y-71189458D01*
X125981291Y-71270947D01*
X126146715Y-71321128D01*
X126318750Y-71338072D01*
X126806250Y-71338072D01*
X126978285Y-71321128D01*
X127143709Y-71270947D01*
X127296164Y-71189458D01*
X127429792Y-71079792D01*
X127500000Y-70994244D01*
X127527501Y-71027753D01*
X127527500Y-71584857D01*
X127462885Y-71637885D01*
X127356329Y-71767725D01*
X127277150Y-71915858D01*
X127228392Y-72076592D01*
X127211928Y-72243750D01*
X127211928Y-72756250D01*
X127228392Y-72923408D01*
X127277150Y-73084142D01*
X127356329Y-73232275D01*
X127462885Y-73362115D01*
X127592725Y-73468671D01*
X127740858Y-73547850D01*
X127901592Y-73596608D01*
X128068750Y-73613072D01*
X128506250Y-73613072D01*
X128673408Y-73596608D01*
X128834142Y-73547850D01*
X128982275Y-73468671D01*
X129112115Y-73362115D01*
X129218671Y-73232275D01*
X129297850Y-73084142D01*
X129346608Y-72923408D01*
X129363072Y-72756250D01*
X129363072Y-72243750D01*
X129346608Y-72076592D01*
X129297850Y-71915858D01*
X129218671Y-71767725D01*
X129112115Y-71637885D01*
X129047500Y-71584857D01*
X129047500Y-71255558D01*
X129171164Y-71189458D01*
X129304792Y-71079792D01*
X129414458Y-70946164D01*
X129495947Y-70793709D01*
X129546128Y-70628285D01*
X129563072Y-70456250D01*
X129563072Y-69543750D01*
X129546128Y-69371715D01*
X129538483Y-69346510D01*
X130865000Y-69346510D01*
X130865000Y-70653490D01*
X131119979Y-71935358D01*
X131620139Y-73142851D01*
X132346259Y-74229566D01*
X133270434Y-75153741D01*
X134357149Y-75879861D01*
X135564642Y-76380021D01*
X136846510Y-76635000D01*
X138153490Y-76635000D01*
X139435358Y-76380021D01*
X140642851Y-75879861D01*
X141729566Y-75153741D01*
X142653741Y-74229566D01*
X143379861Y-73142851D01*
X143880021Y-71935358D01*
X144113814Y-70760000D01*
X145493827Y-70760000D01*
X145504053Y-70793709D01*
X145585542Y-70946164D01*
X145695208Y-71079792D01*
X145828836Y-71189458D01*
X145981291Y-71270947D01*
X146146715Y-71321128D01*
X146318750Y-71338072D01*
X146806250Y-71338072D01*
X146978285Y-71321128D01*
X147143709Y-71270947D01*
X147296164Y-71189458D01*
X147429792Y-71079792D01*
X147500000Y-70994244D01*
X147527501Y-71027753D01*
X147527500Y-71584857D01*
X147462885Y-71637885D01*
X147356329Y-71767725D01*
X147277150Y-71915858D01*
X147228392Y-72076592D01*
X147211928Y-72243750D01*
X147211928Y-72756250D01*
X147228392Y-72923408D01*
X147277150Y-73084142D01*
X147356329Y-73232275D01*
X147462885Y-73362115D01*
X147592725Y-73468671D01*
X147740858Y-73547850D01*
X147901592Y-73596608D01*
X148068750Y-73613072D01*
X148506250Y-73613072D01*
X148673408Y-73596608D01*
X148834142Y-73547850D01*
X148982275Y-73468671D01*
X149112115Y-73362115D01*
X149218671Y-73232275D01*
X149297850Y-73084142D01*
X149346608Y-72923408D01*
X149363072Y-72756250D01*
X149363072Y-72243750D01*
X149346608Y-72076592D01*
X149297850Y-71915858D01*
X149218671Y-71767725D01*
X149112115Y-71637885D01*
X149047500Y-71584857D01*
X149047500Y-71255558D01*
X149171164Y-71189458D01*
X149304792Y-71079792D01*
X149414458Y-70946164D01*
X149495947Y-70793709D01*
X149546128Y-70628285D01*
X149563072Y-70456250D01*
X149563072Y-69543750D01*
X149546128Y-69371715D01*
X149538483Y-69346510D01*
X150865000Y-69346510D01*
X150865000Y-70653490D01*
X151119979Y-71935358D01*
X151620139Y-73142851D01*
X152346259Y-74229566D01*
X153270434Y-75153741D01*
X154357149Y-75879861D01*
X155564642Y-76380021D01*
X156846510Y-76635000D01*
X158153490Y-76635000D01*
X159435358Y-76380021D01*
X160642851Y-75879861D01*
X161729566Y-75153741D01*
X162653741Y-74229566D01*
X163379861Y-73142851D01*
X163880021Y-71935358D01*
X164113814Y-70760000D01*
X165493827Y-70760000D01*
X165504053Y-70793709D01*
X165585542Y-70946164D01*
X165695208Y-71079792D01*
X165828836Y-71189458D01*
X165981291Y-71270947D01*
X166146715Y-71321128D01*
X166318750Y-71338072D01*
X166806250Y-71338072D01*
X166978285Y-71321128D01*
X167143709Y-71270947D01*
X167296164Y-71189458D01*
X167429792Y-71079792D01*
X167500000Y-70994244D01*
X167527501Y-71027753D01*
X167527500Y-71584857D01*
X167462885Y-71637885D01*
X167356329Y-71767725D01*
X167277150Y-71915858D01*
X167228392Y-72076592D01*
X167211928Y-72243750D01*
X167211928Y-72756250D01*
X167228392Y-72923408D01*
X167277150Y-73084142D01*
X167356329Y-73232275D01*
X167462885Y-73362115D01*
X167592725Y-73468671D01*
X167740858Y-73547850D01*
X167901592Y-73596608D01*
X168068750Y-73613072D01*
X168506250Y-73613072D01*
X168673408Y-73596608D01*
X168834142Y-73547850D01*
X168982275Y-73468671D01*
X169112115Y-73362115D01*
X169218671Y-73232275D01*
X169297850Y-73084142D01*
X169346608Y-72923408D01*
X169363072Y-72756250D01*
X169363072Y-72243750D01*
X169346608Y-72076592D01*
X169297850Y-71915858D01*
X169218671Y-71767725D01*
X169112115Y-71637885D01*
X169047500Y-71584857D01*
X169047500Y-71255558D01*
X169171164Y-71189458D01*
X169304792Y-71079792D01*
X169414458Y-70946164D01*
X169495947Y-70793709D01*
X169546128Y-70628285D01*
X169563072Y-70456250D01*
X169563072Y-69543750D01*
X169546128Y-69371715D01*
X169495947Y-69206291D01*
X169414458Y-69053836D01*
X169304792Y-68920208D01*
X169171164Y-68810542D01*
X169018709Y-68729053D01*
X168853285Y-68678872D01*
X168681250Y-68661928D01*
X168193750Y-68661928D01*
X168021715Y-68678872D01*
X167856291Y-68729053D01*
X167703836Y-68810542D01*
X167570208Y-68920208D01*
X167500000Y-69005756D01*
X167429792Y-68920208D01*
X167296164Y-68810542D01*
X167143709Y-68729053D01*
X166978285Y-68678872D01*
X166806250Y-68661928D01*
X166318750Y-68661928D01*
X166146715Y-68678872D01*
X165981291Y-68729053D01*
X165828836Y-68810542D01*
X165695208Y-68920208D01*
X165585542Y-69053836D01*
X165504053Y-69206291D01*
X165493827Y-69240000D01*
X164113814Y-69240000D01*
X163880021Y-68064642D01*
X163379861Y-66857149D01*
X162653741Y-65770434D01*
X161729566Y-64846259D01*
X160642851Y-64120139D01*
X159435358Y-63619979D01*
X158153490Y-63365000D01*
X156846510Y-63365000D01*
X155564642Y-63619979D01*
X154357149Y-64120139D01*
X153270434Y-64846259D01*
X152346259Y-65770434D01*
X151620139Y-66857149D01*
X151119979Y-68064642D01*
X150865000Y-69346510D01*
X149538483Y-69346510D01*
X149495947Y-69206291D01*
X149414458Y-69053836D01*
X149304792Y-68920208D01*
X149171164Y-68810542D01*
X149018709Y-68729053D01*
X148853285Y-68678872D01*
X148681250Y-68661928D01*
X148193750Y-68661928D01*
X148021715Y-68678872D01*
X147856291Y-68729053D01*
X147703836Y-68810542D01*
X147570208Y-68920208D01*
X147500000Y-69005756D01*
X147429792Y-68920208D01*
X147296164Y-68810542D01*
X147143709Y-68729053D01*
X146978285Y-68678872D01*
X146806250Y-68661928D01*
X146318750Y-68661928D01*
X146146715Y-68678872D01*
X145981291Y-68729053D01*
X145828836Y-68810542D01*
X145695208Y-68920208D01*
X145585542Y-69053836D01*
X145504053Y-69206291D01*
X145493827Y-69240000D01*
X144113814Y-69240000D01*
X143880021Y-68064642D01*
X143379861Y-66857149D01*
X142653741Y-65770434D01*
X141729566Y-64846259D01*
X140642851Y-64120139D01*
X139435358Y-63619979D01*
X138153490Y-63365000D01*
X136846510Y-63365000D01*
X135564642Y-63619979D01*
X134357149Y-64120139D01*
X133270434Y-64846259D01*
X132346259Y-65770434D01*
X131620139Y-66857149D01*
X131119979Y-68064642D01*
X130865000Y-69346510D01*
X129538483Y-69346510D01*
X129495947Y-69206291D01*
X129414458Y-69053836D01*
X129304792Y-68920208D01*
X129171164Y-68810542D01*
X129018709Y-68729053D01*
X128853285Y-68678872D01*
X128681250Y-68661928D01*
X128193750Y-68661928D01*
X128021715Y-68678872D01*
X127856291Y-68729053D01*
X127703836Y-68810542D01*
X127570208Y-68920208D01*
X127500000Y-69005756D01*
X127429792Y-68920208D01*
X127296164Y-68810542D01*
X127143709Y-68729053D01*
X126978285Y-68678872D01*
X126806250Y-68661928D01*
X126318750Y-68661928D01*
X126146715Y-68678872D01*
X125981291Y-68729053D01*
X125828836Y-68810542D01*
X125695208Y-68920208D01*
X125585542Y-69053836D01*
X125504053Y-69206291D01*
X125493827Y-69240000D01*
X124113814Y-69240000D01*
X123880021Y-68064642D01*
X123379861Y-66857149D01*
X122653741Y-65770434D01*
X121729566Y-64846259D01*
X120642851Y-64120139D01*
X119435358Y-63619979D01*
X118153490Y-63365000D01*
X116846510Y-63365000D01*
X115564642Y-63619979D01*
X114357149Y-64120139D01*
X113270434Y-64846259D01*
X112346259Y-65770434D01*
X111620139Y-66857149D01*
X111119979Y-68064642D01*
X110865000Y-69346510D01*
X105660000Y-69346510D01*
X105660000Y-60029392D01*
X105731173Y-59231917D01*
X105934656Y-58488109D01*
X106266638Y-57792095D01*
X106716626Y-57165870D01*
X107270403Y-56629223D01*
X107910451Y-56199129D01*
X108616553Y-55889171D01*
X109371457Y-55707935D01*
X110024207Y-55660000D01*
X184970608Y-55660000D01*
X185768083Y-55731173D01*
M02*
