M48
; DRILL file {KiCad 5.1.5-52549c5~84~ubuntu18.04.1} date Thu 23 Jan 2020 11:44:29 GMT
; FORMAT={-:-/ absolute / inch / decimal}
; #@! TF.CreationDate,2020-01-23T11:44:29+00:00
; #@! TF.GenerationSoftware,Kicad,Pcbnew,5.1.5-52549c5~84~ubuntu18.04.1
; #@! TF.FileFunction,Plated,1,2,PTH
FMAT,2
INCH
T1C0.0315
T2C0.0354
T3C0.0512
T4C0.0591
T5C0.0984
T6C0.1575
%
G90
G05
T1
X6.9833Y-3.3744
X6.9833Y-3.4744
X6.9833Y-3.5744
X7.2096Y-3.3744
X7.2096Y-3.4744
X7.2096Y-3.5744
T2
X4.4319Y-3.4449
X4.5303Y-3.4449
X4.6091Y-3.4449
X4.7075Y-3.4449
T4
X6.5945Y-3.6417
T5
X5.1134Y-3.5433
X5.4134Y-3.5433
X5.7134Y-3.5433
X6.0134Y-3.5433
T6
X6.2008Y-2.7559
X5.4134Y-2.7559
X4.626Y-2.7559
X6.9882Y-2.7559
T3
G00X4.311Y-3.4882
M15
G01X4.311Y-3.4488
M16
G05
G00X4.5894Y-3.6331
M15
G01X4.55Y-3.6331
M16
G05
G00X4.8283Y-3.4488
M15
G01X4.8283Y-3.4882
M16
G05
T0
M30
